<svg class="prefix__icon" width="200" height="200" viewBox="0 0 1024 1024" xmlns="http://www.w3.org/2000/svg"><path d="M680.619 668.33l-162.475-93.525 215.381-322.901 118.784 68.608z" fill="#FBDF83"/><path d="M680.619 668.33l-162.475-93.866-40.277 120.832 118.442 68.267z" fill="#FBDF83"/><path d="M561.152 823.979l-134.485-34.134 51.2-94.549 118.442 67.925zm4.779-307.883l144.725 83.627" fill="#FBDF83"/><path d="M650.923 623.275c-3.414 0-6.486-.683-9.558-2.39L479.232 527.36c-4.437-2.73-7.85-6.827-8.875-11.947-1.024-5.12-.341-10.581 2.731-14.677l215.381-323.243c5.462-8.192 16.384-10.922 25.259-5.802l118.784 68.608c8.533 5.12 11.947 15.701 7.51 24.576L668.33 612.693c-2.39 4.779-6.486 8.192-11.264 9.558-2.39.682-4.096 1.024-6.144 1.024zM515.755 504.49l127.317 73.386 154.965-314.026-88.064-50.859-194.218 291.499z"/><path d="M565.93 720.896c-3.071 0-6.485-.683-9.557-2.39L437.59 649.9c-7.85-4.438-11.264-13.995-8.533-22.187l40.619-120.49c1.706-5.462 5.802-9.558 11.264-11.606 5.12-2.048 11.264-1.365 16.042 1.365l162.134 93.526c4.778 2.73 8.192 7.85 9.216 13.312 1.024 5.461-.683 11.264-4.438 15.36l-83.968 95.573c-3.754 3.755-8.874 6.144-13.994 6.144zm-95.914-96.256l91.819 52.907 58.709-66.56-122.197-70.315-28.331 83.968z"/><path d="M536.917 782.677l-172.373-43.69 75.776-131.414 148.48 85.675-51.883 89.43zm-115.029-67.925l96.597 24.576 18.432-32.085-82.944-47.787-32.085 55.296zm87.866-256.014l18.773-32.515 177.357 102.4-18.773 32.515z"/><path d="M747.179 695.296H636.245l-35.84 37.547H747.18c22.528 0 40.618 18.09 40.618 40.618s-18.09 40.619-40.618 40.619H328.363c-1.366 0-2.731-.341-4.096-.341v37.888c1.365 0 2.73.341 4.096.341h418.816c43.349 0 78.506-35.157 78.506-78.507s-35.157-78.165-78.506-78.165z"/></svg>