<svg class="prefix__icon" width="200" height="200" viewBox="0 0 1024 1024" xmlns="http://www.w3.org/2000/svg"><path d="M423.595 611.67l-10.582-51.883c2.39 18.09 5.803 35.498 9.899 52.224.341 0 .683-.342.683-.342zm26.965-61.782c3.072 25.259 7.85 48.128 13.653 67.925l-13.653-67.925z"/><path d="M555.008 512.683c-24.576 0-44.715-20.139-44.715-44.715 0-24.576 20.139-44.715 44.715-44.715s44.715 20.139 44.715 44.715c.341 24.576-19.798 44.715-44.715 44.715zm0-56.32c-6.485 0-11.605 5.12-11.605 11.605s5.12 11.605 11.605 11.605 11.605-5.12 11.605-11.605-5.12-11.605-11.605-11.605zm0 282.965c9.899 0 21.163-9.216 31.744-26.283-2.73-61.098-22.87-94.208-31.744-94.208-8.533 0-29.013 32.768-31.744 94.208 10.581 17.067 21.845 26.283 31.744 26.283zm-26.624 25.941c6.485 24.235 17.75 45.056 26.624 58.71 8.875-13.654 20.139-34.475 26.624-58.71-8.192 4.779-17.067 7.168-26.624 7.168s-18.09-2.389-26.624-7.168z" fill="#FBDF83"/><path d="M586.752 713.045c-10.581 17.067-21.845 26.283-31.744 26.283-9.899 0-21.163-9.216-31.744-26.283-.341 4.438-.341 9.216-.341 14.336 0 13.312 2.048 26.283 5.461 38.23 8.192 4.778 17.067 7.168 26.624 7.168s18.432-2.731 26.624-7.168c3.072-11.947 5.461-24.918 5.461-38.23 0-5.12 0-9.898-.341-14.336z" fill="#FBDF83"/><path d="M581.632 765.27c-6.485 24.234-17.75 45.055-26.624 58.709-8.875-13.654-20.139-34.475-26.624-58.71-15.019-8.533-27.99-23.552-38.57-43.69v5.802c0 74.411 50.517 133.462 52.565 135.851 3.072 3.755 7.85 5.803 12.629 5.803s9.216-2.048 12.63-5.803c2.047-2.39 52.565-61.44 52.565-135.85v-5.803c-10.582 20.138-23.552 35.498-38.571 43.69z" fill="#FBDF83"/><path d="M657.75 535.552v-1.024c0-126.976-86.358-228.01-90.113-232.107l-12.629-14.336-12.63 14.336c-3.754 4.096-87.38 102.059-89.77 226.304 0 2.048-.341 3.755-.341 5.803v4.096c-23.552 24.917-83.968 103.424-46.763 225.963 2.048 6.826 8.192 11.605 15.36 11.946h.341c6.827 0 13.312-4.437 15.702-10.922 4.096-11.606 10.581-25.259 17.749-38.23 5.461-2.73 9.899-6.826 13.312-12.288 3.413-5.802 5.803-11.946 8.875-18.09l1.365-1.366c3.413 9.216 7.168 18.091 11.605 26.283 10.582 20.139 23.552 35.499 38.571 43.69-3.072-11.946-5.461-24.917-5.461-38.229 0-4.778 0-9.557.341-14.336 10.581 17.067 21.845 26.283 31.744 26.283 18.432 0 41.643-31.744 55.979-87.723 5.802 21.163 8.874 45.398 9.216 69.974 4.437-8.534 8.533-18.091 12.288-28.331 17.408 15.701 34.816 48.47 43.69 72.363a16.652 16.652 0 0015.702 10.922h.341c7.168-.341 13.312-4.778 15.36-11.946 38.912-128-29.013-208.214-49.835-229.035z" fill="#FBDF83"/><path d="M587.093 727.381c0 13.312-2.048 26.283-5.461 38.23 15.019-8.534 27.99-23.552 38.57-43.691-.34-24.576-3.413-48.81-9.215-69.973-6.486 25.941-15.019 46.421-24.235 61.44.341 4.096.341 8.874.341 13.994z" fill="#FBDF83"/><path d="M378.88 671.403c-6.144-69.632 19.115-119.808 39.595-148.48l7.509 36.864c-4.096-28.672-6.144-58.71-6.144-88.406 0-2.389.341-4.437.341-6.826-1.024.682-2.048 1.024-3.072 2.048-4.778 4.096-115.712 101.034-64.17 271.36 2.389 7.85 9.557 13.312 17.749 13.653h.341c8.192 0 15.36-5.12 18.091-12.63 11.264-31.06 34.816-74.751 57.344-89.429-4.096-11.946-7.85-24.576-10.923-37.546-23.21 10.922-42.666 35.498-56.661 59.392zm297.643 0c6.144-69.632-19.115-119.808-39.595-148.48l-7.51 36.864c4.097-28.672 6.145-58.71 6.145-88.406 0-2.389-.342-4.437-.342-6.826 1.024.682 2.048 1.024 3.072 2.048 4.779 4.096 115.712 101.034 64.171 271.36-2.39 7.85-9.557 13.312-17.75 13.653h-.34c-8.193 0-15.36-5.12-18.091-12.63-11.264-31.06-34.816-74.751-57.344-89.429 4.096-11.946 7.85-24.576 10.922-37.546 23.211 10.922 42.667 35.498 56.662 59.392z"/><path d="M461.141 637.27c3.414-4.438 4.779-10.24 3.755-15.702l-.683-4.096c-5.802-19.797-10.581-42.325-13.653-67.925l-14.677-72.363c-1.366-6.827-6.144-12.288-12.63-14.336-5.461-1.707-10.922-1.024-15.701 1.707 0 2.389-.341 4.437-.341 6.826 0 29.696 2.048 59.392 6.144 88.406l10.581 51.882c-.341 0-.341.342-.683.342a349.148 349.148 0 0010.923 37.546c4.437-2.73 8.875-4.778 12.97-4.778 5.462-.342 10.582-3.072 13.995-7.51zm64.854-190.806c-28.672 0-51.883-23.21-51.883-51.883 0-28.672 23.21-51.882 51.883-51.882 28.672 0 51.882 23.21 51.882 51.882 0 28.672-23.21 51.883-51.882 51.883zm0-65.536c-7.51 0-13.312 6.144-13.312 13.312 0 7.51 6.144 13.312 13.312 13.312s13.312-6.144 13.312-13.312c0-7.168-5.803-13.312-13.312-13.312z"/><path d="M562.517 677.888c-12.288 19.797-25.258 30.379-36.522 30.379-11.606 0-24.576-10.582-36.523-30.379-.341 5.461-.341 10.923-.341 16.384 0 15.36 2.389 30.379 6.144 44.032 9.557 5.461 19.797 8.192 30.72 8.192s21.162-3.072 30.72-8.192c3.754-13.995 6.144-28.672 6.144-44.032 0-5.461 0-10.923-.342-16.384zm-115.37-33.11c-4.096.342-8.534 2.049-12.971 4.78 4.779 13.994 10.24 26.623 16.384 38.229.341-15.36 1.365-30.379 3.413-45.056a12.308 12.308 0 01-6.826 2.048zm197.632-173.055c0-146.774-100.011-263.851-104.107-268.63l-14.677-16.725-14.678 16.725c-4.096 4.779-101.034 118.102-104.106 261.803 4.778-2.73 10.581-3.413 15.701-1.707 6.485 2.39 11.264 7.851 12.63 14.336l14.677 72.363c-3.072-23.893-4.779-49.835-4.779-78.165 0-100.011 53.59-187.392 80.213-224.598 26.624 37.206 80.214 124.587 80.214 224.598 0 53.248-6.144 98.645-15.702 135.509 6.486 24.576 10.24 52.565 10.582 80.896 29.013-53.93 44.032-136.533 44.032-216.405z"/><path d="M556.715 738.645c-7.51 27.99-20.48 52.224-30.72 67.926-10.24-15.702-23.211-39.936-30.72-67.926-17.408-9.557-32.086-27.306-44.715-50.517v6.485c0 86.016 58.368 154.283 61.099 157.355 3.754 4.096 8.874 6.485 14.677 6.485s10.923-2.389 14.677-6.485c2.39-2.73 61.099-71.339 61.099-157.355v-6.485c-13.312 23.21-27.99 40.96-45.397 50.517z"/><path d="M495.275 738.645c-3.755-13.994-6.144-28.672-6.144-44.032 0-5.802 0-11.264.341-16.384-9.216-15.018-18.09-35.498-25.259-60.416l.683 4.096c1.024 5.462-.341 11.264-3.755 15.702-2.048 2.389-4.437 4.437-7.168 5.802-2.048 14.678-3.072 29.696-3.413 45.056 12.288 22.87 27.307 40.619 44.715 50.176zm67.584-44.032c0 15.36-2.39 30.379-6.144 44.032 17.408-9.557 32.085-27.306 44.714-50.517-.341-28.33-4.096-56.32-10.581-80.896-7.85 30.037-17.408 53.93-27.99 70.997v16.384z"/></svg>