<svg class="prefix__icon" width="200" height="200" viewBox="0 0 1024 1024" xmlns="http://www.w3.org/2000/svg"><path d="M382.566 20.48h51.815v51.814h-51.815zm0 51.814h51.815v51.815h-51.815zm103.63 51.61h51.814v51.814h-51.815zm206.847 103.629h51.815v51.814h-51.815z" fill="#EAB893"/><path d="M330.957 72.294h51.814v51.815h-51.814zm-51.815 0h51.815v51.815h-51.815z" fill="#EAB893"/><path d="M227.533 123.904h51.814v51.814h-51.814zm-51.815 155.238h51.815v51.815h-51.815z" fill="#EAB893"/><path d="M434.38 20.48h51.815v51.814h-51.814zm0 51.814h51.815v51.815h-51.814zm-51.814 103.424h51.815v51.815h-51.815zm51.815 0h51.814v51.815h-51.814zm51.814 51.815h51.815v51.814h-51.815z" fill="#E1D2A9"/><path d="M486.195 279.142h51.815v51.815h-51.815z" fill="#E1D2A9"/><path d="M537.805 279.142h51.814v51.815h-51.814zm-206.848-51.61h51.814v51.815h-51.814z" fill="#E1D2A9"/><path d="M330.957 279.142h51.814v51.815h-51.814z" fill="#E1D2A9"/><path d="M382.566 227.533h51.815v51.814h-51.815zm-258.662 0h51.814v51.814h-51.814z" fill="#E1D2A9"/><path d="M123.904 279.142h51.814v51.815h-51.814z" fill="#E1D2A9"/><path d="M123.904 382.566h51.814v51.815h-51.814zm155.238 0h51.815v51.815h-51.815zm51.815 0h51.814v51.815h-51.814zm0 51.815h51.814v51.814h-51.814zm-51.815 0h51.815v51.814h-51.815zM279.142 486.195h51.815v51.815h-51.815zm51.815 0h51.814v51.815h-51.814zm206.848-103.629h51.814v51.815h-51.814z" fill="#F57478"/><path d="M486.195 382.566h51.815v51.815h-51.815zm0 51.815h51.815v51.814h-51.815z" fill="#F57478"/><path d="M537.805 434.38h51.814v51.815h-51.814zM486.195 486.195h51.815v51.815h-51.815z" fill="#F57478"/><path d="M537.805 486.195h51.814v51.815h-51.814zm207.053-103.629h51.814v51.815h-51.814zM693.043 382.566h51.815v51.815h-51.815zm0 51.815h51.815v51.814h-51.815z" fill="#F57478"/><path d="M744.858 434.38h51.814v51.815h-51.814zM693.043 486.195h51.815v51.815h-51.815zM744.858 486.195h51.814v51.815h-51.814z" fill="#F57478"/><path d="M693.043 537.805h51.815v51.814h-51.815zM744.858 537.805h51.814v51.814h-51.814zM744.858 589.62h51.814v51.814h-51.814zm0 51.814h51.814v51.814h-51.814z" fill="#F57478"/><path d="M744.858 693.043h51.814v51.815h-51.814zM744.858 744.858h51.814v51.814h-51.814z" fill="#F57478"/><path d="M744.858 796.467h51.814v51.815h-51.814zm0 51.815h51.814v51.814h-51.814zM693.043 744.858h51.815v51.814h-51.815zm155.239-362.292h51.814v51.815h-51.814zm0 51.815h51.814v51.814h-51.814zM848.282 486.195h51.814v51.815h-51.814zm-517.325 51.61h51.814v51.814h-51.814z" fill="#F57478"/><path d="M382.566 537.805h51.815v51.814h-51.815zm51.815 0h51.814v51.814h-51.814zM486.195 537.805h51.815v51.814h-51.815z" fill="#EAD5AA"/><path d="M537.805 537.805h51.814v51.814h-51.814zM589.62 537.805h51.814v51.814h-51.815zm51.814 0h51.814v51.814h-51.814zM641.434 589.62h51.814v51.814h-51.814z" fill="#EAD5AA"/><path d="M693.043 589.62h51.815v51.814h-51.815zm0 51.814h51.815v51.814h-51.815z" fill="#EAD5AA"/><path d="M693.043 693.043h51.815v51.815h-51.815z" fill="#EAD5AA"/><path d="M641.434 693.043h51.814v51.815h-51.814zm-51.815 0h51.815v51.815h-51.815zM537.805 693.043h51.814v51.815h-51.814z" fill="#EAD5AA"/><path d="M486.195 693.043h51.815v51.815h-51.815zM434.38 693.043h51.815v51.815h-51.814zm-51.814 0h51.815v51.815h-51.815z" fill="#EAD5AA"/><path d="M330.957 693.043h51.814v51.815h-51.814z" fill="#EAD5AA"/><path d="M330.957 641.434h51.814v51.814h-51.814zm0-51.815h51.814v51.815h-51.814z" fill="#EAD5AA"/><path d="M382.566 589.62h51.815v51.814h-51.815zm51.815 0h51.814v51.814h-51.814zM486.195 589.62h51.815v51.814h-51.815z" fill="#EAD5AA"/><path d="M537.805 589.62h51.814v51.814h-51.814zM589.62 589.62h51.814v51.814h-51.815z" fill="#EAD5AA"/><path d="M589.62 641.434h51.814v51.814h-51.815z" fill="#E4A36D"/><path d="M641.434 641.434h51.814v51.814h-51.814z" fill="#EAD5AA"/><path d="M537.805 641.434h51.814v51.814h-51.814z" fill="#E4A36D"/><path d="M486.195 641.434h51.815v51.814h-51.815zM434.38 641.434h51.815v51.814h-51.814z" fill="#E4A36D"/><path d="M382.566 641.434h51.815v51.814h-51.815zm0 103.424h51.815v51.814h-51.815zm51.815 0h51.814v51.814h-51.814zM486.195 744.858h51.815v51.814h-51.815z" fill="#EAD5AA"/><path d="M537.805 744.858h51.814v51.814h-51.814zM589.62 744.858h51.814v51.814h-51.815zm51.814 0h51.814v51.814h-51.814z" fill="#EAD5AA"/><path d="M279.142 537.805h51.815v51.814h-51.815zM279.142 589.62h51.815v51.814h-51.815zm0 51.814h51.815v51.814h-51.815z" fill="#F57478"/><path d="M279.142 693.043h51.815v51.815h-51.815zM279.142 744.858h51.815v51.814h-51.815zm51.815 0h51.814v51.814h-51.814z" fill="#F57478"/><path d="M279.142 796.467h51.815v51.815h-51.815zm0 51.815h51.815v51.814h-51.815zm0 51.814h51.815v51.814h-51.815z" fill="#F57478"/><path d="M279.142 951.706h51.815v51.814h-51.815zm51.815 0h51.814v51.814h-51.814z" fill="#F57478"/><path d="M382.566 951.706h51.815v51.814h-51.815z" fill="#F57478"/><path d="M434.38 951.706h51.815v51.814h-51.814z" fill="#FFF"/><path d="M486.195 951.706h51.815v51.814h-51.815z" fill="#F57478"/><path d="M537.805 951.706h51.814v51.814h-51.814z" fill="#F57478"/><path d="M589.62 951.706h51.814v51.814h-51.815z" fill="#FFF"/><path d="M641.434 951.706h51.814v51.814h-51.814z" fill="#F57478"/><path d="M693.043 951.706h51.815v51.814h-51.815z" fill="#F57478"/><path d="M693.043 900.096h51.815v51.814h-51.815zm0-51.814h51.815v51.814h-51.815zm0-51.815h51.815v51.815h-51.815z" fill="#F57478"/><path d="M641.434 796.467h51.814v51.815h-51.814zm-51.815 0h51.815v51.815h-51.815zm0-362.086h51.815v51.814h-51.815zm51.815 0h51.814v51.814h-51.814zM641.434 486.195h51.814v51.815h-51.814zm-51.815 0h51.815v51.815h-51.815zm-207.053-51.814h51.815v51.814h-51.815zm51.815 0h51.814v51.814h-51.814zM434.38 486.195h51.815v51.815h-51.814zm-51.814 0h51.815v51.815h-51.815z" fill="#FFF"/><path d="M537.805 796.467h51.814v51.815h-51.814z" fill="#F57478"/><path d="M486.195 796.467h51.815v51.815h-51.815z" fill="#F57478"/><path d="M434.38 796.467h51.815v51.815h-51.814zm-51.814 0h51.815v51.815h-51.815z" fill="#FFF"/><path d="M330.957 796.467h51.814v51.815h-51.814zm0 51.815h51.814v51.814h-51.814z" fill="#F57478"/><path d="M382.566 848.282h51.815v51.814h-51.815zm51.815 0h51.814v51.814h-51.814z" fill="#FFF"/><path d="M486.195 848.282h51.815v51.814h-51.815z" fill="#F57478"/><path d="M537.805 848.282h51.814v51.814h-51.814z" fill="#F57478"/><path d="M589.62 848.282h51.814v51.814h-51.815zm51.814 0h51.814v51.814h-51.814z" fill="#FFF"/><path d="M641.434 900.096h51.814v51.814h-51.814z" fill="#F57478"/><path d="M641.434 900.096h51.814v51.814h-51.814zm-51.815 0h51.815v51.814h-51.815z" fill="#FFF"/><path d="M537.805 900.096h51.814v51.814h-51.814z" fill="#F57478"/><path d="M486.195 900.096h51.815v51.814h-51.815z" fill="#F57478"/><path d="M434.38 900.096h51.815v51.814h-51.814zm-51.814 0h51.815v51.814h-51.815z" fill="#FFF"/><path d="M330.957 900.096h51.814v51.814h-51.814zm-155.239-517.53h51.815v51.815h-51.815z" fill="#F57478"/><path d="M227.533 382.566h51.814v51.815h-51.814zm155.033 0h51.815v51.815h-51.815zm51.815 0h51.814v51.815h-51.814zm155.238 0h51.815v51.815h-51.815zm51.815 0h51.814v51.815h-51.814zm155.033 0h51.815v51.815h-51.815zm0 51.815h51.815v51.814h-51.815zM796.467 486.195h51.815v51.815h-51.815z" fill="#BAD4E5"/><path d="M796.467 537.805h51.815v51.814h-51.815zM796.467 589.62h51.815v51.814h-51.815zm0 51.814h51.815v51.814h-51.815z" fill="#BAD4E5"/><path d="M796.467 693.043h51.815v51.815h-51.815zM227.533 434.381h51.814v51.814h-51.814zM227.533 486.195h51.814v51.815h-51.814z" fill="#BAD4E5"/><path d="M227.533 537.805h51.814v51.814h-51.814zM227.533 589.62h51.814v51.814h-51.814zm0 51.814h51.814v51.814h-51.814z" fill="#BAD4E5"/><path d="M227.533 693.043h51.814v51.815h-51.814zM227.533 744.858h51.814v51.814h-51.814z" fill="#BAD4E5"/><path d="M227.533 796.467h51.814v51.815h-51.814zm0 51.815h51.814v51.814h-51.814z" fill="#BAD4E5"/><path d="M123.904 434.38h51.814v51.815h-51.814zm51.814 0h51.815v51.815h-51.815zM123.904 486.195h51.814v51.815h-51.814zm51.814 0h51.815v51.815h-51.815z" fill="#F57478"/><path d="M175.718 537.805h51.815v51.814h-51.815zM175.718 589.62h51.815v51.814h-51.815zm0 51.814h51.815v51.814h-51.815z" fill="#F57478"/><path d="M175.718 693.043h51.815v51.815h-51.815z" fill="#F57478"/><path d="M175.718 227.533h51.815v51.814h-51.815zm51.815 0h51.814v51.814h-51.814z" fill="#E1D2A9"/><path d="M227.533 279.142h51.814v51.815h-51.814z" fill="#E1D2A9"/><path d="M279.142 279.142h51.815v51.815h-51.815zm-51.61-206.848h51.815v51.815h-51.814zm-51.814 51.61h51.815v51.814h-51.815zm155.239 0h51.814v51.814h-51.814zm-103.424 51.814h51.814v51.815h-51.814z" fill="#E1D2A9"/><path d="M279.142 123.904h51.815v51.814h-51.815zM537.805 20.48h51.814v51.814h-51.814zM589.62 20.48h51.814v51.814h-51.815zm0 51.814h51.814v51.815h-51.815z" fill="#E1D2A9"/><path d="M486.195 20.48h51.815v51.814h-51.815zm0 51.814h51.815v51.815h-51.815zm-103.629 51.61h51.815v51.814h-51.815zm-103.424 51.814h51.815v51.815h-51.815zm103.424 103.424h51.815v51.815h-51.815zm51.815 0h51.814v51.815h-51.814zm207.053 0h51.814v51.815h-51.814zm103.424 0h51.814v51.815h-51.814z" fill="#FFF"/><path d="M796.467 227.533h51.815v51.814h-51.815z" fill="#FFF"/><path d="M72.294 330.957h51.815v51.814H72.294z" fill="#EEEFF3"/><path d="M123.904 330.957h51.814v51.814h-51.814zm51.814 0h51.815v51.814h-51.815zm51.815 0h51.814v51.814h-51.814z" fill="#EEEFF3"/><path d="M279.142 330.957h51.815v51.814h-51.815zm51.815 0h51.814v51.814h-51.814z" fill="#EEEFF3"/><path d="M382.566 330.957h51.815v51.814h-51.815zm51.815 0h51.814v51.814h-51.814zM486.195 330.957h51.815v51.814h-51.815z" fill="#EEEFF3"/><path d="M537.805 330.957h51.814v51.814h-51.814zM589.62 330.957h51.814v51.814h-51.815zm51.814 0h51.814v51.814h-51.814z" fill="#EEEFF3"/><path d="M693.043 330.957h51.815v51.814h-51.815zM744.858 330.957h51.814v51.814h-51.814z" fill="#EEEFF3"/><path d="M796.467 330.957h51.815v51.814h-51.815zm51.815 0h51.814v51.814h-51.814zm51.814 0h51.814v51.814h-51.814z" fill="#EEEFF3"/><path d="M537.805 72.294h51.814v51.815h-51.814z" fill="#FFF"/><path d="M537.805 72.294h51.814v51.815h-51.814z" fill="#FFF"/><path d="M537.805 123.904h51.814v51.814h-51.814zm-51.61 51.814h51.815v51.815h-51.815z" fill="#FFF"/><path d="M537.805 175.718h51.814v51.815h-51.814zM589.62 175.718h51.814v51.815h-51.815zm51.814 0h51.814v51.815h-51.814zm51.61-51.814h51.814v51.814h-51.815z" fill="#FFF"/><path d="M693.043 123.904h51.815v51.814h-51.815z" fill="#FFF"/><path d="M641.434 72.294h51.814v51.815h-51.814z" fill="#FFF"/><path d="M693.043 72.294h51.815v51.815h-51.815zM744.858 123.904h51.814v51.814h-51.814zm-51.815 51.814h51.815v51.815h-51.815zm-51.61 51.815h51.815v51.814h-51.814zm155.034-51.815h51.815v51.815h-51.815zm-51.61 51.815h51.815v51.814h-51.814z" fill="#E1D2A9"/><path d="M693.043 279.142h51.815v51.815h-51.815zm103.424 0h51.815v51.815h-51.815zm51.815 0h51.814v51.815h-51.814zM641.434 123.904h51.814v51.814h-51.814z" fill="#E1D2A9"/><path d="M589.62 123.904h51.814v51.814h-51.815zm-51.815 103.629h51.814v51.814h-51.814z" fill="#E2A16B"/><path d="M589.62 227.533h51.814v51.814h-51.815z" fill="#E2A16B"/><path d="M589.62 279.142h51.814v51.815h-51.815zm155.238-103.424h51.814v51.815h-51.814zM434.38 123.904h51.814v51.814h-51.814zm0 103.629h51.814v51.814h-51.814zm-103.424-51.815h51.814v51.815h-51.814zm-51.815 51.815h51.815v51.814h-51.815zm-103.424-51.815h51.815v51.815h-51.815z" fill="#E2A16B"/></svg>