<svg class="prefix__icon" width="200" height="200" viewBox="0 0 1024 1024" xmlns="http://www.w3.org/2000/svg"><path d="M290.816 20.48h49.152v49.152h-49.152zm49.152 0h49.152v49.152h-49.152zm49.152 0h49.152v49.152H389.12zm49.152 0h49.152v49.152h-49.152zm49.152 0h49.152v49.152h-49.152zm49.152 0h49.152v49.152h-49.152zm49.152 0h49.152v49.152h-49.152zm49.152 0h49.152v49.152H634.88z" fill="#F8A933"/><path d="M684.032 20.48h49.152v49.152h-49.152zm49.152 98.304h49.152v49.152h-49.152zm0 49.152h49.152v49.152h-49.152zm0 49.152h49.152v49.152h-49.152zm0 49.152h49.152v49.152h-49.152zm0 49.152h49.152v49.152h-49.152zm0 49.152h49.152v49.152h-49.152zm0 49.152h49.152v49.152h-49.152zm0 49.152h49.152V512h-49.152zm0 49.152h49.152v49.152h-49.152zm0 49.152h49.152v49.152h-49.152zm0 49.152h49.152v49.152h-49.152zm0 49.152h49.152v49.152h-49.152zm0 49.152h49.152v49.152h-49.152z" fill="#FFFD6B"/><path d="M290.816 69.632h49.152v49.152h-49.152zm-49.152 49.152h49.152v49.152h-49.152zm0 49.152h49.152v49.152h-49.152z" fill="#F8A933"/><path d="M290.816 167.936h49.152v49.152h-49.152zm0 49.152h49.152v49.152h-49.152zm0 49.152h49.152v49.152h-49.152zm0 49.152h49.152v49.152h-49.152zm0 49.152h49.152v49.152h-49.152zm0 49.152h49.152v49.152h-49.152zm0 49.152h49.152V512h-49.152zm0 49.152h49.152v49.152h-49.152zm0 49.152h49.152v49.152h-49.152zm0 49.152h49.152v49.152h-49.152z" fill="#FFFD6B"/><path d="M241.664 217.088h49.152v49.152h-49.152zm0 49.152h49.152v49.152h-49.152zm0 49.152h49.152v49.152h-49.152zm0 49.152h49.152v49.152h-49.152zm0 49.152h49.152v49.152h-49.152zm0 49.152h49.152V512h-49.152zm0 49.152h49.152v49.152h-49.152zm0 49.152h49.152v49.152h-49.152zm0 49.152h49.152v49.152h-49.152zm0 49.152h49.152v49.152h-49.152zm0 49.152h49.152v49.152h-49.152zm49.152-589.824h49.152v49.152h-49.152zm49.152 0h49.152v49.152h-49.152zm0 49.152h49.152v49.152h-49.152zm0 49.152h49.152v49.152h-49.152zm0 49.152h49.152v49.152h-49.152zm0 49.152h49.152v49.152h-49.152zm0 49.152h49.152v49.152h-49.152zm0 49.152h49.152v49.152h-49.152zm0 49.152h49.152V512h-49.152zm0 49.152h49.152v49.152h-49.152zm0 49.152h49.152v49.152h-49.152zm0 49.152h49.152v49.152h-49.152zm0 49.152h49.152v49.152h-49.152z" fill="#F8A933"/><path d="M290.816 659.456h49.152v49.152h-49.152zm0 49.152h49.152v49.152h-49.152zm49.152 0h49.152v49.152h-49.152zm49.152 0h49.152v49.152H389.12zm49.152 0h49.152v49.152h-49.152z" fill="#F8A933"/><path d="M487.424 757.76h49.152v49.152h-49.152zm-49.152 0h49.152v49.152h-49.152zm98.304 0h49.152v49.152h-49.152z" fill="#C1836C"/><path d="M487.424 806.912h49.152v49.152h-49.152zm-49.152 0h49.152v49.152h-49.152zm98.304 0h49.152v49.152h-49.152zm-49.152 49.152h49.152v49.152h-49.152zm-49.152 0h49.152v49.152h-49.152zm98.304 0h49.152v49.152h-49.152zm-49.152 49.152h49.152v49.152h-49.152zm-49.152 0h49.152v49.152h-49.152zm98.304 0h49.152v49.152h-49.152zm-49.152 49.152h49.152v49.152h-49.152zm-49.152 0h49.152v49.152h-49.152zm98.304 0h49.152v49.152h-49.152z" fill="#E8B796"/><path d="M487.424 708.608h49.152v49.152h-49.152zm49.152 0h49.152v49.152h-49.152zm49.152 0h49.152v49.152h-49.152zm49.152 0h49.152v49.152H634.88zm49.152 0h49.152v49.152h-49.152zm0-49.152h49.152v49.152h-49.152zm-49.152 0h49.152v49.152H634.88zm-49.152 0h49.152v49.152h-49.152zm-49.152 0h49.152v49.152h-49.152zm-49.152 0h49.152v49.152h-49.152zm-49.152 0h49.152v49.152h-49.152zm-49.152 0h49.152v49.152H389.12zm49.152-49.152h49.152v49.152h-49.152zm0-49.152h49.152v49.152h-49.152zm0-49.152h49.152v49.152h-49.152zm0-49.152h49.152V512h-49.152zm0-49.152h49.152v49.152h-49.152zm0-49.152h49.152v49.152h-49.152zm0-49.152h49.152v49.152h-49.152zm0-49.152h49.152v49.152h-49.152zm0-49.152h49.152v49.152h-49.152zm0-49.152h49.152v49.152h-49.152zm0-49.152h49.152v49.152h-49.152zm49.152 0h49.152v49.152h-49.152zm0 49.152h49.152v49.152h-49.152zm0 49.152h49.152v49.152h-49.152zm0 49.152h49.152v49.152h-49.152zm0 49.152h49.152v49.152h-49.152zm0 49.152h49.152v49.152h-49.152zm0 49.152h49.152v49.152h-49.152zm0 49.152h49.152V512h-49.152zm0 49.152h49.152v49.152h-49.152zm0 49.152h49.152v49.152h-49.152zm0 49.152h49.152v49.152h-49.152zm98.304 0h49.152v49.152h-49.152zm0-49.152h49.152v49.152h-49.152zm0-49.152h49.152v49.152h-49.152zm0-49.152h49.152V512h-49.152zm0-49.152h49.152v49.152h-49.152zm0-49.152h49.152v49.152h-49.152zm0-49.152h49.152v49.152h-49.152zm0-49.152h49.152v49.152h-49.152zm0-49.152h49.152v49.152h-49.152zm0-49.152h49.152v49.152h-49.152zm0-49.152h49.152v49.152h-49.152z" fill="#F8A933"/><path d="M339.968 69.632h49.152v49.152h-49.152zm49.152 0h49.152v49.152H389.12zm0 49.152h49.152v49.152H389.12zm0 49.152h49.152v49.152H389.12zm0 49.152h49.152v49.152H389.12zm0 49.152h49.152v49.152H389.12zm0 49.152h49.152v49.152H389.12zm0 49.152h49.152v49.152H389.12zm0 49.152h49.152v49.152H389.12zm0 49.152h49.152V512H389.12zm0 49.152h49.152v49.152H389.12zm0 49.152h49.152v49.152H389.12zm0 49.152h49.152v49.152H389.12z" fill="#F87421"/><path d="M438.272 69.632h49.152v49.152h-49.152zm49.152 0h49.152v49.152h-49.152z" fill="#F8A933"/><path d="M536.576 69.632h49.152v49.152h-49.152zm0 49.152h49.152v49.152h-49.152zm0 49.152h49.152v49.152h-49.152zm0 49.152h49.152v49.152h-49.152zm0 49.152h49.152v49.152h-49.152zm0 49.152h49.152v49.152h-49.152zm0 49.152h49.152v49.152h-49.152zm0 49.152h49.152v49.152h-49.152zm0 49.152h49.152V512h-49.152zm0 49.152h49.152v49.152h-49.152zm0 49.152h49.152v49.152h-49.152zm0 49.152h49.152v49.152h-49.152z" fill="#FFFD6B"/><path d="M585.728 69.632h49.152v49.152h-49.152zm49.152 0h49.152v49.152H634.88zm0 49.152h49.152v49.152H634.88zm0 49.152h49.152v49.152H634.88zm0 49.152h49.152v49.152H634.88zm0 49.152h49.152v49.152H634.88zm0 49.152h49.152v49.152H634.88zm0 49.152h49.152v49.152H634.88zm0 49.152h49.152v49.152H634.88zm0 49.152h49.152V512H634.88zm0 49.152h49.152v49.152H634.88zm0 49.152h49.152v49.152H634.88zm0 49.152h49.152v49.152H634.88z" fill="#F87421"/><path d="M684.032 69.632h49.152v49.152h-49.152zm0 49.152h49.152v49.152h-49.152zm0 49.152h49.152v49.152h-49.152zm0 49.152h49.152v49.152h-49.152zm0 49.152h49.152v49.152h-49.152zm0 49.152h49.152v49.152h-49.152zm0 49.152h49.152v49.152h-49.152zm0 49.152h49.152v49.152h-49.152zm0 49.152h49.152V512h-49.152zm0 49.152h49.152v49.152h-49.152zm0 49.152h49.152v49.152h-49.152zm0 49.152h49.152v49.152h-49.152z" fill="#F8A933"/></svg>