<svg class="prefix__icon" width="200" height="200" viewBox="0 0 1024 1024" xmlns="http://www.w3.org/2000/svg"><path d="M498.463 900.506c-37.745 0-67.298-32.482-63.734-70.062l20.419-215.061h84.582l22.385 214.467c3.952 37.765-25.662 70.656-63.652 70.656z" fill="#FFB357"/><path d="M539.73 615.383h-21.566l24.33 26.44z" fill="#FFB357"/><path d="M518.164 615.383l-54.62-59.351-67.85 50.524 52.142 85.955 7.312-77.128z" fill="#FFCE71"/><path d="M518.164 615.383h-62.996l-7.311 77.128 59.904 98.734c11.899 19.6 32.48 30.392 53.575 30.781l-18.82-180.203-24.352-26.44z" fill="#FFCE71"/><path d="M498.463 911.135c-20.972 0-41.104-8.91-55.235-24.412a74.8 74.8 0 01-19.087-57.283l21.32-224.686h103.854l17.633 168.796c.614 5.837-3.625 11.08-9.482 11.694-5.837.635-11.08-3.625-11.694-9.482l-15.627-149.73h-65.33l-19.498 205.415c-1.433 15.155 3.42 29.696 13.66 40.96s24.27 17.47 39.486 17.47c15.093 0 29.552-6.431 39.649-17.654a53.535 53.535 0 0013.435-41.267l-1.7-16.303a10.646 10.646 0 1121.176-2.211l1.7 16.302a74.803 74.803 0 01-18.78 57.733 74.879 74.879 0 01-55.48 24.658z"/><path d="M215.06 391.352h44.606v351.212H215.06z" fill="#B9F0FF"/><path d="M270.295 753.193h-65.864v-372.47h65.885v372.47zm-44.585-21.279h23.327V401.981H225.71v329.933z"/><path d="M215.06 384.512a281.948 281.948 0 10563.897 0 281.948 281.948 0 10-563.897 0z" fill="#EA5B70"/><path d="M368.23 384.512a271.401 205.353 90 10410.706 0 271.401 205.353 90 10-410.706 0z" fill="#FF8E9E"/><path d="M497.009 677.09c-161.321 0-292.578-131.257-292.578-292.578S335.667 91.935 497.01 91.935 789.586 223.19 789.586 384.512 658.33 677.089 497.009 677.089zm0-563.877c-149.586 0-271.299 121.713-271.299 271.299S347.423 655.811 497.01 655.811s271.298-121.713 271.298-271.299S646.595 113.213 497.01 113.213z"/><path d="M382.239 223.928c32.338-23.142 71.966-36.782 114.75-36.782 108.994 0 197.365 88.351 197.365 197.366s-88.35 197.366-197.366 197.366-197.366-88.351-197.366-197.366c0-39.404 11.551-76.104 31.437-106.906" fill="#EA5B70"/><path d="M497.009 592.507c-114.688 0-207.995-93.307-207.995-207.995 0-40.14 11.469-79.114 33.136-112.681 3.175-4.936 9.77-6.349 14.705-3.174a10.65 10.65 0 013.174 14.704c-19.456 30.126-29.737 65.106-29.737 101.13 0 102.953 83.764 186.717 186.717 186.717s186.716-83.764 186.716-186.716-83.763-186.717-186.716-186.717c-39.24 0-76.78 12.022-108.565 34.796a10.65 10.65 0 01-14.848-2.458 10.65 10.65 0 012.458-14.848c35.43-25.354 77.25-38.768 120.955-38.768 114.688 0 207.995 93.307 207.995 207.995s-93.307 208.015-207.995 208.015z"/><path d="M172.401 774.574a64.963 64.963 0 10129.925 0 64.963 64.963 0 10-129.925 0z" fill="#EA5B70"/><path d="M237.363 850.166c-41.677 0-75.591-33.915-75.591-75.592s33.914-75.592 75.591-75.592 75.592 33.915 75.592 75.592-33.915 75.592-75.592 75.592zm0-129.905c-29.942 0-54.313 24.371-54.313 54.313s24.371 54.313 54.313 54.313 54.313-24.371 54.313-54.313c0-29.962-24.371-54.313-54.313-54.313z"/><path d="M778.936 745.984h-44.605v-324.3c0-18.638 15.114-33.752 33.75-33.752h10.855v358.052z" fill="#B9F0FF"/><path d="M789.586 756.613h-65.864V431.76c0-30.023 24.433-54.476 54.457-54.476h11.407v379.33zm-44.606-21.279h23.327V400.077c-13.496 4.219-23.327 16.834-23.327 31.682v303.575z"/><path d="M691.671 774.574a64.963 64.963 0 10129.925 0 64.963 64.963 0 10-129.925 0z" fill="#FF8E9E"/><path d="M756.634 850.166c-41.677 0-75.592-33.915-75.592-75.592s33.915-75.592 75.592-75.592c41.676 0 75.591 33.915 75.591 75.592s-33.894 75.592-75.591 75.592zm0-129.905c-29.942 0-54.313 24.371-54.313 54.313s24.37 54.313 54.313 54.313 54.313-24.371 54.313-54.313c.02-29.962-24.351-54.313-54.313-54.313z"/><path d="M366.039 398.97a38.154 29.635 0 1076.309 0 38.154 29.635 0 10-76.309 0z" fill="#FF8E9E"/><path d="M411.77 379.965c-5.877 0-10.628-4.771-10.628-10.629v-20.213c0-5.878 4.772-10.63 10.629-10.63s10.629 4.772 10.629 10.63v20.213a10.62 10.62 0 01-10.63 10.63z"/><path d="M557.076 392.233a38.154 29.635 0 1076.309 0 38.154 29.635 0 10-76.309 0z" fill="#FF8E9E"/><path d="M576.901 379.965c-5.878 0-10.629-4.771-10.629-10.629v-20.213c0-5.878 4.772-10.63 10.63-10.63s10.628 4.772 10.628 10.63v20.213c0 5.878-4.772 10.63-10.629 10.63zm-82.76 5.407c-14.643 0-26.275-6.902-32.05-12.718-4.138-4.157-4.117-10.895.04-15.053a10.637 10.637 0 0114.971-.02c1.659 1.577 16.138 14.356 36.987-1.004a10.631 10.631 0 1112.616 17.122c-11.633 8.58-22.774 11.673-32.564 11.673z"/></svg>