<svg class="prefix__icon" width="200" height="200" viewBox="0 0 1024 1024" xmlns="http://www.w3.org/2000/svg"><path d="M157.42999999999995 482.96a321.761 321.761 0 10643.522 0 321.761 321.761 0 10-643.522 0z" fill="#FF8E9E"/><path d="M253.952 482.96c0-161.24 118.58-294.749 273.285-318.137-15.688-2.355-31.723-3.625-48.046-3.625-146.985 0-270.95 98.55-309.412 233.185h-29.655c-32.01 0-57.938 25.949-57.938 57.938v61.276c0 32.01 25.948 57.938 57.938 57.938h29.655c38.462 134.636 162.427 233.186 309.412 233.186 16.343 0 32.379-1.29 48.046-3.625-154.685-23.388-273.285-156.918-273.285-318.137z" fill="#FF8E9E"/><path d="M788.623 571.535h33.547c32.01 0 57.938-25.948 57.938-57.938v-61.276c0-32.01-25.949-57.938-57.938-57.938h-33.547c-34.201-119.664-135.946-210.76-261.365-229.56-154.706 23.368-273.306 156.897-273.306 318.136s118.58 294.749 273.285 318.137c125.42-18.801 227.185-109.896 261.386-229.56z" fill="#FFB5C0"/><path d="M479.191 815.37c-73.687 0-143.503-23.613-201.871-68.3-54.354-41.616-95.13-99.922-115.467-164.885h-21.729c-37.826 0-68.587-30.761-68.587-68.588v-61.276c0-37.826 30.76-68.587 68.587-68.587h21.73c20.336-64.963 61.112-123.29 115.466-164.885 58.368-44.687 128.184-68.3 201.871-68.3 23.081 0 46.141 2.375 68.526 7.065 5.755 1.208 9.441 6.84 8.233 12.595a10.65 10.65 0 01-12.595 8.233 313.979 313.979 0 00-64.164-6.615c-138.22 0-261.263 92.713-299.192 225.465l-2.212 7.72h-37.683c-26.092 0-47.31 21.218-47.31 47.31v61.275c0 26.092 21.218 47.31 47.31 47.31h37.683l2.212 7.72C217.928 701.38 340.972 794.092 479.19 794.092s261.243-92.713 299.192-225.465l2.212-7.72h41.575c26.091 0 47.308-21.218 47.308-47.31v-61.276c0-26.091-21.217-47.309-47.308-47.309h-41.575l-2.212-7.72c-18.063-63.222-56.832-120.28-109.158-160.728a10.633 10.633 0 01-1.905-14.93 10.633 10.633 0 0114.93-1.904c53.76 41.533 94.126 99.533 114.3 163.983h25.62c37.826 0 68.587 30.761 68.587 68.588v61.276c0 37.827-30.76 68.587-68.587 68.587h-25.62c-20.338 64.963-61.113 123.29-115.467 164.885-58.389 44.687-128.184 68.321-201.892 68.321z"/><path d="M253.95199999999997 482.96a225.239 225.239 0 10450.478 0 225.239 225.239 0 10-450.478 0z" fill="#FF8E9E"/><path d="M479.191 718.828c-130.068 0-235.868-105.82-235.868-235.869s105.82-235.868 235.868-235.868 235.868 105.82 235.868 235.868-105.8 235.869-235.868 235.869zm0-450.479c-118.333 0-214.61 96.277-214.61 214.61s96.297 214.59 214.61 214.59 214.61-96.277 214.61-214.61-96.277-214.59-214.61-214.59z"/><path d="M552.735 611.84c66.232-66.417 94.003-197.161 48.742-242.278-42.885-42.763-175.923-16.978-242.155 49.438-48.66 48.784-53.494 94.044-29.164 138.076L109.425 747.991c-34.673 31.212-36.045 85.115-3.01 118.047 33.033 32.932 86.937 31.416 118.046-3.338l190.3-221.307c44.093 24.207 89.334 19.23 137.974-29.553z" fill="#2ED0FC"/><path d="M552.735 611.84c66.232-66.417 94.003-197.161 48.742-242.278-42.885-42.763-175.923-16.978-242.155 49.438-48.66 48.784-53.494 94.044-29.164 138.076l-86.364 74.691c6.779 50.79 25.15 100.332 55.091 144.343L414.72 641.393c44.134 24.207 89.375 19.23 138.015-29.553z" fill="#7CE3FF"/><path d="M163.758 900.424c-24.494 0-47.432-9.483-64.86-26.85-18.063-18.002-27.648-41.984-27.013-67.481.655-25.498 11.448-48.947 30.413-66.007l15.319-13.25a10.64 10.64 0 0115.011 1.085 10.64 10.64 0 01-1.085 15.011l-15.155 13.108c-14.418 12.984-22.712 31.006-23.224 50.606-.492 19.6 6.86 38.031 20.746 51.876 13.885 13.844 32.379 21.155 51.937 20.602 19.6-.552 37.601-8.908 50.688-23.51l195.768-227.677 7.557 4.158c43.07 23.654 82.883 14.848 125.338-27.73 29.88-29.962 53.535-76.227 63.283-123.76 9.483-46.265 4.055-84.952-14.52-103.486-36.024-35.902-161.833-16.057-227.103 49.418-42.455 42.578-51.159 82.411-27.382 125.42l4.178 7.557-148.971 128.84a10.64 10.64 0 01-15.012-1.086 10.64 10.64 0 011.085-15.012l136.11-117.719c-23.121-48.476-11.407-96.563 34.919-143.012 70.042-70.246 209.449-97.055 257.188-49.46 24.023 23.963 31.437 68.732 20.336 122.84-10.547 51.425-36.372 101.724-69.058 134.513-46.326 46.448-94.351 58.306-142.91 35.307L232.51 869.683c-17.162 19.17-40.57 30.024-66.068 30.761-.88-.04-1.782-.02-2.683-.02z"/><path d="M384.62 474.065a34.284 26.644 44.918 1037.628-37.735 34.284 26.644 44.918 10-37.627 37.735z" fill="#FF8E9E"/><path d="M427.09 451.768a10.557 10.557 0 01-7.516-3.113 10.643 10.643 0 01-.02-15.052l12.82-12.862c4.157-4.157 10.895-4.178 15.053-.02a10.643 10.643 0 01.02 15.052l-12.82 12.862a10.625 10.625 0 01-7.537 3.133z"/><path d="M497.61 586.716a34.284 26.644 44.918 1037.627-37.734 34.284 26.644 44.918 10-37.627 37.734z" fill="#FF8E9E"/><path d="M523.55 547.963a10.557 10.557 0 01-7.515-3.113 10.643 10.643 0 01-.02-15.053l12.82-12.861a10.643 10.643 0 1115.073 15.032l-12.82 12.861a10.471 10.471 0 01-7.537 3.134zm-28.118-33.342a10.49 10.49 0 01-1.598-.122c-32.747-4.916-41.37-30.127-41.37-42.742 0-5.878 4.772-10.63 10.63-10.63h.02c5.837 0 10.568 4.711 10.63 10.548.081 3.113 1.617 18.534 23.244 21.79 5.816.881 9.81 6.288 8.93 12.104a10.609 10.609 0 01-10.486 9.052z"/></svg>