<svg class="prefix__icon" width="200" height="200" viewBox="0 0 1024 1024" xmlns="http://www.w3.org/2000/svg"><path d="M171.98100000000005 543.56a343.941 343.941 0 10687.882 0 343.941 343.941 0 10-687.882 0z" fill="#BED5E9"/><path d="M515.656 894.684c-161.751 0-301.809-109.829-340.588-267.09-46.32-187.94 68.88-378.542 256.82-424.878a352.584 352.584 0 0184.3-10.286c161.751 0 301.809 109.83 340.588 267.095 46.32 187.94-68.88 378.537-256.82 424.873a352.614 352.614 0 01-84.3 10.286zm.532-688.04c-27.105 0-54.323 3.317-80.896 9.87C254.966 260.978 144.43 443.859 188.887 624.19c37.202 150.892 171.571 256.282 326.774 256.282 27.105 0 54.323-3.318 80.896-9.871 180.326-44.457 290.862-227.344 246.405-407.67-37.207-150.902-171.571-256.287-326.774-256.287z" fill="#6C0000"/><path d="M511.734 353.106C273.295 344.632 17.9 390.989 14.249 493.624c-3.65 102.62 247.813 167 486.251 175.473 238.444 8.479 493.84-37.883 497.485-140.503 3.65-102.63-247.808-167.01-486.251-175.488zm465.991 174.771c-2.345 65.874-206.648 132.378-476.57 122.783-269.92-9.595-468.986-90.44-466.646-156.314 2.34-65.874 206.648-132.398 476.57-122.803 269.92 9.595 468.986 90.46 466.646 156.334z" fill="#6B0306"/><path d="M232.878 366.438c-8.315 10.169-16.63 26.645-20.5 34.811 81.669-18.631 178.114-24.591 296.617-20.377 131.097 4.659 239.718 21.621 322.426 50.022-3.2-8.837-14.172-31.764-18.027-40.192-89.953-26.818-190.669-50.913-302.664-54.897-101.939-3.62-190.71 14.1-277.852 30.633z" fill="#BED5E9"/><path d="M537.569 640.282a88.576 88.576 0 10177.152 0 88.576 88.576 0 10-177.152 0z" fill="#FFC700"/><path d="M626.202 734.787h-.01c-1.122 0-2.269-.026-3.4-.062-52.07-1.853-92.928-45.721-91.09-97.792 1.853-52.244 45.42-93.015 97.797-91.085 52.07 1.854 92.928 45.722 91.09 97.792a94.152 94.152 0 01-94.387 91.147zm-.113-177.158a82.314 82.314 0 00-82.54 79.719c-1.617 45.542 34.115 83.917 79.663 85.545l2.995.051a82.335 82.335 0 0082.54-79.724c1.617-45.537-34.115-83.911-79.663-85.534l-2.995-.057z" fill="#6C0000"/><path d="M788.429 251.197a18.836 18.836 0 1037.673 0 18.836 18.836 0 10-37.673 0z" fill="#FFC700"/><path d="M807.28 275.958l-.89-.016a24.801 24.801 0 01-23.88-25.625 24.678 24.678 0 0124.735-23.885c14.54.502 25.252 11.996 24.765 25.641a24.668 24.668 0 01-24.73 23.885zm.42-37.673c-7.439 0-13.096 5.473-13.337 12.447a12.933 12.933 0 0012.447 13.373l.476 5.929v-5.924a12.856 12.856 0 0012.887-12.452 12.933 12.933 0 00-12.447-13.373h-.026z" fill="#6C0000"/><path d="M62.407 396.4a46.7 46.7 0 1093.4 0 46.7 46.7 0 10-93.4 0z" fill="#FFC700"/><path d="M109.128 449.03l-1.9-.037c-29-1.034-51.758-25.461-50.729-54.456a52.439 52.439 0 0152.567-50.755l1.9.036a52.275 52.275 0 0136.649 16.722 52.3 52.3 0 0114.08 37.74 52.424 52.424 0 01-52.567 50.75zm-.057-93.405a40.612 40.612 0 00-40.719 39.332c-.799 22.466 16.835 41.395 39.296 42.199l1.48.025a40.602 40.602 0 0040.719-39.326 40.515 40.515 0 00-10.895-29.246 40.55 40.55 0 00-28.401-12.964l-1.48-.02z" fill="#6C0000"/><path d="M537.943 203.505c8.745 2.211-13.896 24.842-4.634 37.263 9.268 12.421 5.56 11.684 9.268 12.421 20.193 4.035 32.588-13.885 46.003-10.86 5.35 1.209 8.612 12.755 13.245 25.176 4.634 12.42 19.374 9.354 19.507 14.668.21 8.469 5.899 21.28-3.368 33.705-9.268 12.422-40.146 8.55-47.724 14.034-10.06 7.286-90.767-33.044-36.925 22.651 5.417 5.601 29.117-.312 37.606 6.426 36.864 29.25 36.516-2.284 45.778 55.685s-5.3 69.693-9.267 74.532c-22.63 27.612-31.97 26.608-35.497 18.708-4.608-10.317 35.497-35.271 3.067-55.977l-32.43-20.705s-22.477-16.005-16.149-25.795c3.569-5.524 18.043-16.87-19.02-49.996s-53.623 9.984-72.152-31.422c-18.53-41.405-11.735-51.287-11.735-80.271s-.68-29.783-.68-29.783 51.291-26.593 115.107-10.46z" fill="#FFEC43"/><path d="M578.458 518.671c-3.067 0-8.689-1.08-11.925-8.34-2.882-6.451 1.654-13.143 6.446-20.23 4.72-6.957 10.05-14.842 8.653-21.662-.835-4.014-4.132-7.885-9.81-11.51l-32.44-20.7c-4.767-3.39-26.86-20.162-17.93-34.002a34.21 34.21 0 011.387-1.945c3.63-4.834 10.378-13.83-19.38-40.423-12.052-10.783-20.97-12.165-27.391-12.165-3.472 0-6.687.446-9.708.85-3.195.43-6.2.809-9.083.809-12.042 0-20.244-6.85-27.427-22.917-14.925-33.362-14.034-47.647-12.913-65.726.312-5.079.66-10.542.66-16.962 0-18.09-.266-24.878-.43-27.32l-3.655-4.306 6.594-3.426c1.285-.665 31.985-16.317 75.797-16.317 14.75 0 29.383 1.812 43.484 5.376 2.59.655 4.603 2.258 5.678 4.51 2.196 4.619-.174 9.713-3.18 16.17-2.892 6.225-6.85 14.745-3.84 18.785 3.933 5.258 5.74 8.432 6.708 10.327 1.47.23 2.626.312 3.758.312 6.907 0 13.035-3.067 18.96-6.02 7.034-3.513 14.878-6.97 22.41-5.29 7.68 1.73 11.105 11.244 15.441 23.286l2.048 5.59c1.598 4.286 4.951 5.607 9.892 7.128 3.681 1.131 9.836 3.036 9.984 9.472.046 1.812.394 3.85.753 6.067 1.367 8.397 3.215 19.896-5.3 31.309-7.183 9.646-22.615 11.351-35.005 12.718-5.192.573-12.298 1.357-13.988 2.575-5.217 3.764-16.496 1.25-29.998-2.089-8.432-2.089-17.408-4.014-22.256-4.137 1.228 2.591 4.915 8.387 16.102 19.963 1.423.891 8.284.942 12.39.973 9.15.072 18.601.144 24.643 4.936 12.518 9.928 20.162 12.278 25.753 13.993 14.101 4.336 16.395 9 22.211 45.389 9.083 56.908-4.132 71.915-9.764 78.325l-.773.896c-14.372 17.557-25.042 25.728-33.556 25.728zm-102.39-182.814c12.493 0 23.705 4.823 35.282 15.175 33.377 29.82 29.327 45.225 20.961 56.361l-.911 1.26c-1.562 2.427 5.944 11.556 14.612 17.761l32.184 20.526c8.469 5.407 13.538 11.832 15.028 19.093 2.427 11.72-4.71 22.246-10.435 30.71-2.084 3.077-5.243 7.73-5.3 9.318.451.758.8.758.974.758 1.147 0 7.716-1.03 24.397-21.376l1.039-1.214c4.152-4.715 15.165-17.224 6.953-68.628-5.31-33.265-6.467-33.623-13.988-35.933-6.118-1.879-15.365-4.72-29.624-16.04-2.847-2.258-11.244-2.32-17.378-2.366-8.847-.061-16.496-.123-20.812-4.582-16.81-17.393-22.211-26.875-19.262-33.823 1.203-2.842 4.27-6.231 12.053-6.231 6.594 0 15.815 2.283 24.719 4.49 7.521 1.864 15.283 3.784 19.502 3.784.911 0 1.26-.097 1.275-.097 3.645-2.75 10.445-3.492 19.067-4.45 10.112-1.116 22.697-2.503 26.813-8.023 5.51-7.393 4.28-14.991 3.088-22.338a91.28 91.28 0 01-.763-5.545c-.569-.19-1.229-.395-1.772-.569-5.145-1.587-13.742-4.239-17.505-14.305l-2.084-5.719c-2.094-5.8-5.253-14.577-7.265-15.872-.256-.01-.855-.077-1.505-.077-3.584 0-7.788 2.1-12.647 4.531-8.422 4.204-18.416 9.13-31.36 6.56-3.225-.64-5.053-1.573-6.733-5.09-.599-1.254-1.838-3.86-6.118-9.6-7.255-9.708-1.562-21.934 2.59-30.858.717-1.552 1.598-3.441 2.197-4.962a166.093 166.093 0 00-37.448-4.25c-32.588 0-57.82 9.473-66.795 13.364.24 4.577.338 12.37.338 26.158 0 6.697-.348 12.4-.681 17.705-1.065 17.09-1.838 29.445 11.894 60.15 7.127 15.908 12.84 15.908 16.624 15.908 2.381 0 4.87-.354 7.506-.707 3.528-.471 7.266-.957 11.29-.957z" fill="#6B0204"/><path d="M236.641 731.766s16.743-46.295 40.387-47.278 26.593 13.788 26.593 21.668c0 7.88 5.909 22.656 13.788 26.593 7.88 3.942 69.934 11.822 88.648 15.76s41.37 10.833 46.295 23.638c4.925 12.805-2.954 29.548-6.897 39.399-3.942 9.85-7.88 9.85 2.955 22.656s25.61 12.805 33.49 22.656c7.88 9.85 10.833 19.701 10.833 19.701l2.955 7.88s-103.424-5.908-171.387-53.192-87.66-99.481-87.66-99.481z" fill="#FFEC43"/><path d="M504.422 890.87l-9.067-.522c-4.29-.241-105.887-6.554-174.428-54.237-68.695-47.785-88.996-100.055-89.83-102.251l-.774-2.053.753-2.053c1.853-5.126 18.867-50.069 45.706-51.185l2.453-.051c18.985 0 30.31 10.332 30.31 27.638 0 6.63 5.437 18.76 10.516 21.299 4.132 2.032 32.763 6.45 51.712 9.37 14.485 2.232 28.17 4.341 35.518 5.892 29.752 6.262 45.834 14.94 50.6 27.305 5.336 13.855-1.366 30.167-5.795 40.966l-1.132 2.764c-.798 2.002-1.597 3.63-2.288 5.049-1.956 3.968-2.038 4.121 4.27 11.581 4.88 5.77 10.7 8.489 16.865 11.372 5.97 2.795 12.145 5.678 16.727 11.407 8.505 10.619 11.756 21.253 11.879 21.699l6.005 16.01zM243.021 731.643c4.372 9.815 26.537 54.308 84.659 94.74 54.185 37.694 132.68 48.635 159.206 51.349a61.184 61.184 0 00-9.615-17.168c-2.847-3.568-7.322-5.657-12.493-8.079-6.707-3.133-14.32-6.697-20.894-14.449-9.754-11.535-10.02-16.01-5.853-24.468.579-1.188 1.26-2.545 1.93-4.224l1.158-2.857c3.727-9.057 9.349-22.753 5.703-32.205-2.13-5.53-11.14-13.48-41.984-19.973-7.034-1.48-20.556-3.569-34.877-5.78-30.817-4.757-49.905-7.834-55.204-10.481-10.414-5.212-17.065-22.37-17.065-31.892 0-10.624-6.036-15.79-18.463-15.79l-1.966.04c-15.109.63-29.301 28.744-34.242 41.237z" fill="#6B0204"/></svg>