<svg class="prefix__icon" width="200" height="200" viewBox="0 0 1024 1024" xmlns="http://www.w3.org/2000/svg"><path d="M866.058 411.034C863.452 217.672 705.981 61.7 511.995 61.7c-193.982 0-351.452 155.97-354.058 349.333h708.121z" fill="#00DFD5"/><path d="M876.124 420.972H147.86l.139-10.077C150.676 212.87 313.964 51.763 512 51.763S873.324 212.87 875.996 410.895l.128 10.077zm-707.968-19.876h687.678C848.03 218.522 695.854 71.639 512 71.639S175.97 218.522 168.156 401.096z" fill="#6C0000"/><path d="M157.814 409.216H866.18v58.225H157.814z" fill="#FFBD00"/><path d="M876.124 477.373H147.876v-78.095h728.248v78.095zm-708.372-19.875h688.491v-38.344H167.752v38.344z" fill="#6C0000"/><path d="M904.996 467.287H118.999c-44.216 0-80.056 35.84-80.056 80.056s35.84 80.057 80.056 80.057h71.946c-.005.256-.077.496-.077.757v27.29a30.93 30.93 0 0061.86 0v-27.29c0-.26-.071-.501-.076-.757h518.691c-.005.256-.076.496-.076.757v27.29a30.93 30.93 0 0061.86 0v-27.29c0-.26-.072-.501-.077-.757h71.946c44.216 0 80.056-35.84 80.056-80.057s-35.84-80.056-80.056-80.056z" fill="#5EB1BE"/><path d="M802.196 696.315c-22.538 0-40.867-18.33-40.867-40.868v-18.115H262.615l.046 18.115c0 22.538-18.33 40.868-40.868 40.868s-40.868-18.33-40.868-40.868v-18.115H119c-49.618 0-89.994-40.376-89.994-89.994s40.376-89.994 89.994-89.994h786.002c49.618 0 89.994 40.376 89.994 89.994s-40.376 89.994-89.994 89.994h-61.983l.046 18.115c0 22.538-18.33 40.868-40.868 40.868zm-549.544-78.858h528.947l-.395 37.99c0 11.581 9.411 20.992 20.992 20.992s20.992-9.41 20.992-20.992V618.22l9.867-.758H905c38.661 0 70.118-31.458 70.118-70.119s-31.457-70.118-70.118-70.118H118.999c-38.661 0-70.118 31.457-70.118 70.118s31.457 70.119 70.118 70.119h82.197l-.395 37.99c0 11.582 9.41 20.992 20.992 20.992s20.992-9.41 20.992-20.992v-37.227l9.867-.768z" fill="#6C0000"/><path d="M318.67900000000003 549.31a32.133 32.133 0 1064.266 0 32.133 32.133 0 10-64.266 0z" fill="#FFF"/><path d="M350.812 589.727c-22.287 0-40.417-18.13-40.417-40.418s18.13-40.417 40.417-40.417 40.417 18.13 40.417 40.417-18.13 40.418-40.417 40.418zm0-64.272c-13.158 0-23.854 10.701-23.854 23.854s10.7 23.855 23.854 23.855 23.854-10.701 23.854-23.855-10.695-23.854-23.854-23.854z" fill="#6C0000"/><path d="M479.862 549.31a32.133 32.133 0 1064.266 0 32.133 32.133 0 10-64.266 0z" fill="#FFF"/><path d="M512 589.727c-22.287 0-40.417-18.13-40.417-40.418s18.13-40.417 40.417-40.417c22.277 0 40.407 18.13 40.407 40.417s-18.13 40.418-40.407 40.418zm0-64.272c-13.158 0-23.854 10.701-23.854 23.854s10.7 23.855 23.854 23.855c13.148 0 23.849-10.701 23.849-23.855s-10.7-23.854-23.849-23.854z" fill="#6C0000"/><path d="M641.044 549.31a32.133 32.133 0 1064.267 0 32.133 32.133 0 10-64.267 0z" fill="#FFF"/><path d="M673.178 589.727c-22.288 0-40.418-18.13-40.418-40.418s18.13-40.417 40.418-40.417 40.417 18.13 40.417 40.417-18.13 40.418-40.417 40.418zm0-64.272c-13.159 0-23.854 10.701-23.854 23.854s10.7 23.855 23.854 23.855c13.158 0 23.854-10.701 23.854-23.855s-10.696-23.854-23.854-23.854z" fill="#6C0000"/><path d="M320.343 960.82h562.534s19.031-77.4-18.227-110.731c-37.258-33.336-84.316-29.414-84.316-29.414s-16.328-55.7-55.885-68.629c-50.985-16.666-92.16 16.666-92.16 16.666s-38.236-57.846-93.143-54.907c-62.781 3.364-90.199 51.963-90.199 51.963s-44.119-44.12-107.847-19.61c-63.73 24.51-64.712 90.2-64.712 90.2s-61.46-13.456-96.082 25.492c-31.375 35.297-22.549 98.042-22.549 98.042l162.586.927z" fill="#BED5E9"/><path d="M890.67 970.762H320.343l-171.228-.978-1.198-8.51c-.39-2.749-9.083-67.732 24.965-106.019 28.846-32.44 73.78-32.45 94.669-30.234 3.317-21.422 16.62-67.61 69.99-88.135 13.932-5.36 28.094-8.08 42.092-8.08 31.529 0 55.198 13.563 67.317 22.441 12.17-15.58 41.437-44.667 91.669-47.36 47.595-2.457 82.457 34.386 95.954 51.252 11.412-6.99 33.382-17.7 60.728-17.7 10.926 0 21.775 1.74 32.251 5.16 35.323 11.557 53.622 51.431 59.848 68.03 16.496.333 53.063 4.48 83.886 32.056 41.231 36.89 22.093 117.115 21.253 120.51l-1.869 7.567zm-723.825-20.751l153.554.875h554.348c3.38-19.235 9.339-70.077-16.717-93.388-27.269-24.387-60.109-27.024-72.965-27.024-2.345 0-3.738.098-3.932.113l-8.013.62-2.314-7.722c-.144-.512-15.406-50.872-49.439-61.998a83.61 83.61 0 00-26.071-4.172c-32.466 0-56.54 18.954-56.78 19.138l-8.47 6.779-6.04-9.027c-.349-.527-35.928-52.966-84.327-50.473-56.274 3.016-81.065 45.164-82.094 46.95l-6.462 11.275-9.2-9.154c-.22-.22-24.889-24.116-62.3-24.116-11.546 0-23.312 2.274-34.96 6.754-56.806 21.847-58.337 80.491-58.342 81.075l-.185 12.119-11.863-2.555c-.21-.056-56.37-11.54-86.548 22.374-21.55 24.249-21.898 64.185-20.88 81.557z" fill="#6C0000"/></svg>