<svg class="prefix__icon" width="200" height="200" viewBox="0 0 1024 1024" xmlns="http://www.w3.org/2000/svg"><path d="M82.207 564.623a422.615 422.615 0 10845.23 0 422.615 422.615 0 10-845.23 0z" fill="#ECF3FE"/><path d="M504.822 995.973c-237.85 0-431.34-193.49-431.34-431.34s193.49-431.339 431.34-431.339 431.34 193.49 431.34 431.34-193.49 431.34-431.34 431.34zm0-845.23c-228.214 0-413.886 185.672-413.886 413.885s185.672 413.886 413.886 413.886 413.885-185.672 413.885-413.886-185.671-413.885-413.885-413.885z" fill="#6C0000"/><path d="M504.822 974.659c137.764 0 259.758-67.282 335.104-170.717L644.378 338.877H365.26L169.713 803.942c75.35 103.435 197.345 170.717 335.109 170.717z" fill="#FFEC43"/><path d="M504.822 983.393c-134.738 0-262.656-65.157-342.175-174.3l-2.898-3.993 1.92-4.537 197.796-470.415h290.714L849.894 805.1l-2.898 3.993c-79.518 109.138-207.436 174.3-342.174 174.3zm-325.13-180.638c76.416 102.272 197.58 163.184 325.13 163.184s248.714-60.907 325.13-163.184l-191.37-455.148h-267.52l-191.37 455.148z" fill="#6B0204"/><path d="M504.822 974.659c98.642 0 189.189-34.525 260.347-92.073l-149.376-538.47H393.85l-149.376 538.47c71.158 57.548 161.705 92.073 260.347 92.073z" fill="#FFEC43"/><path d="M504.822 983.393c-96.461 0-190.874-33.387-265.84-94.013l-4.466-3.61L387.21 335.39h235.223l152.694 550.375-4.465 3.61c-74.951 60.626-169.364 94.018-265.84 94.018zM254.433 879.355c71.143 55.864 159.826 86.58 250.389 86.58 90.573 0 179.261-30.72 250.388-86.58L609.157 352.85h-208.67L254.432 879.355z" fill="#6B0204"/><path d="M507.628 344.115H432.44L331.018 933.386c.359 1.198.732 2.366 1.09 3.554a412.728 412.728 0 00172.714 37.724 412.672 412.672 0 00172.713-37.724c.358-1.188.732-2.356 1.09-3.554l-101.422-589.27h-69.575z" fill="#FFEC43"/><path d="M504.822 983.393c-61.363 0-120.694-12.948-176.348-38.523l-3.554-1.618-2.857-9.338.343-2.002L425.078 335.39h159.488L687.58 933.908l-2.575 8.372-3.84 2.585c-55.65 25.575-114.98 38.528-176.343 38.528zM340.29 931.052c52.04 23.142 107.36 34.882 164.53 34.882s112.492-11.74 164.532-34.882L569.841 352.85H439.803L340.29 931.052z" fill="#6B0204"/><path d="M504.822 987.238c101.494 0 194.606-35.809 267.469-95.442-59.47-83.594-157.062-138.178-267.47-138.178-110.402 0-207.994 54.584-267.468 138.178 72.858 59.633 165.975 95.442 267.469 95.442z" fill="#FFC700"/><path d="M504.822 994.519c-98.975 0-195.594-34.483-272.067-97.1l-5.273-4.307 3.952-5.545c62.915-88.443 165.115-141.235 273.388-141.235s210.473 52.792 273.387 141.235l3.953 5.545-5.274 4.306c-76.472 62.618-173.092 97.101-272.066 97.101zM247.327 890.47c73.006 57.77 164.178 89.493 257.495 89.493s184.489-31.729 257.495-89.493C701.85 809.206 606.11 760.888 504.822 760.888S307.794 809.206 247.327 890.47z" fill="#6C0000"/><path d="M719.386 249.815c-1.582-117.181-97.009-211.697-214.564-211.697-117.555 0-212.982 94.52-214.564 211.697h429.128z" fill="#00DFD5"/><path d="M728.248 258.55H281.395l.128-8.842c1.649-121.493 101.822-220.324 223.299-220.324 121.492 0 221.66 98.831 223.298 220.324l.128 8.842zm-428.953-17.46h411.054c-6.113-107.903-96.502-194.257-205.527-194.257-109.01.005-199.414 86.359-205.527 194.258z" fill="#6C0000"/><path d="M290.181 248.714h429.276v35.282H290.181z" fill="#FFBD00"/><path d="M728.187 292.72h-446.73v-52.735h446.735v52.736zM298.91 275.268h411.822v-17.823H298.91v17.823z" fill="#6C0000"/><path d="M742.984 283.904H266.66c-26.793 0-48.512 21.719-48.512 48.512s21.719 48.512 48.512 48.512h43.597c-.005.159-.046.302-.046.46v16.538a18.74 18.74 0 1037.488 0V381.39c0-.159-.04-.302-.046-.461h314.332c-.005.159-.046.302-.046.46v16.538a18.74 18.74 0 1037.489 0V381.39c0-.159-.041-.302-.046-.461h43.597c26.793 0 48.512-21.719 48.512-48.512s-21.714-48.512-48.507-48.512z" fill="#5EB1BE"/><path d="M680.684 425.4a27.479 27.479 0 01-27.464-27.463v-8.274H356.393l.04 8.274a27.494 27.494 0 01-27.478 27.463 27.494 27.494 0 01-27.48-27.463v-8.274H266.65c-31.57 0-57.242-25.672-57.242-57.242s25.672-57.241 57.242-57.241h476.329c31.57 0 57.241 25.671 57.241 57.241s-25.672 57.242-57.241 57.242h-34.842l.015 8.274a27.479 27.479 0 01-27.468 27.463zm-342.585-53.534l9.554.343H670.72l-.041 25.728c0 5.514 4.49 10.004 10.005 10.004 5.53 0 10.02-4.49 10.02-10.004v-25.273l8.683-.455h43.597c21.934 0 39.787-17.854 39.787-39.788s-17.853-39.787-39.787-39.787h-476.33c-21.933 0-39.787 17.853-39.787 39.787s17.854 39.788 39.788 39.788h52.321l-.041 25.728a10.02 10.02 0 0020.04 0v-16.548l-.876-9.523z" fill="#6C0000"/><path d="M387.671 333.609a19.471 19.471 0 1038.943 0 19.471 19.471 0 10-38.943 0z" fill="#FFF"/><path d="M407.137 360.366a26.778 26.778 0 01-26.752-26.752 26.778 26.778 0 0126.752-26.752 26.778 26.778 0 0126.752 26.752 26.778 26.778 0 01-26.752 26.752zm0-38.948a12.211 12.211 0 00-12.196 12.196c0 6.723 5.474 12.196 12.196 12.196s12.196-5.473 12.196-12.196a12.211 12.211 0 00-12.196-12.196z" fill="#6C0000"/><path d="M485.35 333.609a19.471 19.471 0 1038.943 0 19.471 19.471 0 10-38.943 0z" fill="#FFF"/><path d="M504.822 360.366a26.778 26.778 0 01-26.752-26.752 26.778 26.778 0 0126.752-26.752 26.778 26.778 0 0126.752 26.752 26.778 26.778 0 01-26.752 26.752zm0-38.948a12.211 12.211 0 00-12.196 12.196c0 6.723 5.473 12.196 12.196 12.196s12.196-5.473 12.196-12.196a12.211 12.211 0 00-12.196-12.196z" fill="#6C0000"/><path d="M583.03 333.609a19.471 19.471 0 1038.942 0 19.471 19.471 0 10-38.942 0z" fill="#FFF"/><path d="M602.506 360.366a26.778 26.778 0 01-26.752-26.752 26.778 26.778 0 0126.752-26.752 26.778 26.778 0 0126.752 26.752 26.778 26.778 0 01-26.752 26.752zm0-38.948a12.211 12.211 0 00-12.196 12.196 12.211 12.211 0 0012.196 12.196 12.211 12.211 0 0012.196-12.196 12.211 12.211 0 00-12.196-12.196z" fill="#6C0000"/></svg>