<svg class="prefix__icon" width="200" height="200" viewBox="0 0 1024 1024" xmlns="http://www.w3.org/2000/svg"><path d="M38.13900000000001 542.853a382.275 382.275 0 10764.549 0 382.275 382.275 0 10-764.55 0z" fill="#FFC700"/><path d="M420.413 933.023C205.271 933.023 30.24 758 30.24 542.853s175.032-390.17 390.174-390.17 390.175 175.023 390.175 390.17-175.032 390.17-390.175 390.17zm0-764.55c-206.433 0-374.374 167.947-374.374 374.38s167.941 374.38 374.374 374.38 374.375-167.947 374.375-374.38-167.941-374.38-374.375-374.38z" fill="#6C0000"/><path d="M118.252 299.197h95.13V320h-95.13zm143.907 0h200.832V320H262.16zm249.61 0h213.97V320H511.77zm-459.202 112.4h126.997v20.802H52.567zm283.428 0h352.517v20.802H335.995zm398.5 0h52.551v20.802h-52.551zm-699.443 112.4h238.663v20.802H35.052zm67.875 224.265h269.317v21.858H102.927zm496.912 0h142.32v21.858H599.84zM52.567 636.39h72.253v20.803H52.567zm218.957 0h284.641v20.803H271.524zm391.93 0h129.183v20.803H663.455z" fill="#6C0000"/><path d="M793.6410000000001 220.252a97.772 97.772 0 10195.543 0 97.772 97.772 0 10-195.543 0z" fill="#FFEC43"/><path d="M891.412 325.919c-58.265 0-105.671-47.396-105.671-105.667s47.406-105.666 105.671-105.666c58.266 0 105.672 47.395 105.672 105.666S949.678 325.92 891.412 325.92zm0-195.543c-49.55 0-89.87 40.32-89.87 89.876s40.314 89.877 89.87 89.877 89.872-40.32 89.872-89.877-40.315-89.876-89.872-89.876z" fill="#6B0204"/><path d="M920.044 136.156c28.672 14.567 40.811 48.63 36.992 82.555-8.336 74.045-96.707 82.033-105.57 79.089a88.893 88.893 0 0040.377 9.65c48.983 0 88.688-39.367 88.688-87.93 0-38.784-25.339-71.68-60.487-83.364z" fill="#FFC700"/></svg>