<svg class="prefix__icon" width="200" height="200" viewBox="0 0 1024 1024" xmlns="http://www.w3.org/2000/svg"><path d="M59.84800000000001 512.005a452.147 452.147 0 10904.294 0 452.147 452.147 0 10-904.294 0z" fill="#00DFD5"/><path d="M512 973.486C257.53 973.486 50.509 766.474 50.509 512S257.53 50.514 512 50.514 973.491 257.526 973.491 512 766.47 973.486 512 973.486zm0-904.294C267.837 69.192 69.197 267.837 69.197 512S267.837 954.808 512 954.808 954.803 756.163 954.803 512 756.163 69.192 512 69.192z" fill="#6C0000"/><path d="M154.609 223.81h714.777v24.602H154.61zM76.918 356.752h870.16v24.602H76.917zm-20.72 132.941h911.595v24.602H56.197zm80.28 265.262h751.033v25.851H136.479zm-59.56-132.321h870.16v24.602H76.917z" fill="#6C0000"/><path d="M201.09799999999996 504.515a115.17 115.17 0 10230.339 0 115.17 115.17 0 10-230.339 0z" fill="#ECF3FE"/><path d="M316.268 629.023c-68.655 0-124.514-55.844-124.514-124.508s55.86-124.509 124.514-124.509S440.78 435.856 440.78 504.52s-55.86 124.503-124.513 124.503zm0-230.339c-58.353 0-105.826 47.478-105.826 105.83s47.473 105.831 105.826 105.831 105.825-47.478 105.825-105.83-47.473-105.83-105.825-105.83z" fill="#6C0000"/><path d="M351.017 410.455c32.763 16.789 46.633 56.044 42.27 95.15-9.523 85.34-110.504 94.546-120.627 91.151a100.905 100.905 0 0046.137 11.121c55.972 0 101.34-45.373 101.34-101.34 0-44.703-28.954-82.616-69.12-96.082z" fill="#BED5E9"/></svg>