<svg class="prefix__icon" width="200" height="200" viewBox="0 0 1024 1024" xmlns="http://www.w3.org/2000/svg"><path d="M254.003 470.487a345.185 345.185 0 10690.37 0 345.185 345.185 0 10-690.37 0z" fill="#FFEC43"/><path d="M599.183 823.526c-194.667 0-353.044-158.377-353.044-353.044s158.382-353.03 353.044-353.03 353.045 158.368 353.045 353.03S793.85 823.526 599.183 823.526zm0-690.375c-186.004 0-337.336 151.337-337.336 337.336 0 186.01 151.327 337.347 337.336 337.347S936.52 656.497 936.52 470.487c0-186-151.327-337.336-337.337-337.336z" fill="#6B0204"/><path d="M203.832 770.58c4.265 5.56 2.176 14.321-4.67 19.57l-65.335 50.109c-6.846 5.248-15.847 4.997-20.112-.564-4.265-5.56-2.176-14.32 4.67-19.568l65.336-50.11c6.84-5.248 15.846-4.997 20.111.563zm15.028 81.987c4.264 5.56 2.176 14.32-4.67 19.569l-65.336 50.11c-6.846 5.247-15.847 4.996-20.112-.564-4.265-5.56-2.176-14.32 4.67-19.569l65.336-50.11c6.846-5.252 15.847-4.996 20.112.564zm-90.307-117.755c4.265 5.56 2.176 14.32-4.67 19.569l-65.336 50.11c-6.845 5.247-15.846 4.996-20.111-.564-4.265-5.56-2.176-14.32 4.67-19.569l65.336-50.109c17.49-13.42 21.74 2.688 20.111.563z" fill="#6C0000"/><path d="M336.036 451.574s-94.352-57.416-264.51 86.743l164.02 72.29 100.49-159.033z" fill="#BED5E9"/><path d="M238.566 620.529L56.873 540.436l9.58-8.115c97.448-82.555 171.007-99.89 215.551-99.89 37.248 0 57.273 11.924 58.112 12.436l6.82 4.152-108.37 171.51zm-152.268-84.28l146.222 64.445 92.052-145.674c-7.982-2.965-22.344-6.877-42.568-6.877-40.458 0-106.777 15.555-195.706 88.105z" fill="#6C0000"/><path d="M538.86 716.042s30.986 106.01-152.367 232.965L359.21 771.855l179.65-55.813z" fill="#BED5E9"/><path d="M380.641 962.606l-30.228-196.25 193.746-60.175 2.237 7.67c1.336 4.552 30.439 112.927-155.438 241.613l-10.317 7.142zM368 777.35l24.315 157.932c138.076-99.415 142.669-183.496 140.267-209.06L368 777.349z" fill="#6C0000"/><path d="M581.105 683.12c151.434-116.136 228.905-269.337 173.04-342.184-55.87-72.848-223.918-37.755-375.357 78.382C280.16 494.956 212.95 586.3 193.475 660.95l.05.015a4.06 4.06 0 00-.414 1.495c-.18 2.54 93.87 32.748 100.485 131.677.077 1.141.533 2.252 1.234 3.169.896 1.167 2.197 2.017 3.605 2.222a3.83 3.83 0 001.356-.092c77.128.507 182.728-40.714 281.314-116.316z" fill="#BED5E9"/><path d="M298.813 807.409l-1.612-.128c-3.287-.471-6.467-2.391-8.628-5.228a13.414 13.414 0 01-2.816-7.45c-3.568-53.247-34.176-94.382-90.987-122.204-5.745-2.81-9.897-4.843-9.503-10.48.072-1.024.277-2.018.625-3.016 20.772-79.529 91.09-171.418 188.114-245.816 96.322-73.877 202.757-117.99 284.713-117.99 45.906 0 81.054 14.202 101.652 41.057 58.404 76.165-19.87 234.608-174.49 353.208-96.296 73.84-202.716 117.94-284.671 117.94h-.006l-2.39.107zM202.255 658.58c61.143 30.127 94.449 74.865 99.026 133.008 78.608-.026 181.417-42.896 275.042-114.704 147.747-113.32 224.721-261.882 171.586-331.171-17.51-22.83-48.353-34.909-89.19-34.909-78.613 0-181.474 42.896-275.154 114.755-92.585 70.989-160 157.737-181.31 233.021z" fill="#6C0000"/><path d="M503.322 728.694L312.617 477.379a598.733 598.733 0 00-29.916 33.966l180.05 237.28a595.558 595.558 0 0040.57-19.931z" fill="#FFF"/><path d="M460.262 758.328L272.717 511.181l3.896-4.793a613.084 613.084 0 0130.3-34.421l6.364-6.713L515.128 731.27l-8.084 4.347a605.716 605.716 0 01-41.098 20.183l-5.684 2.53zM292.71 511.555l172.514 227.348a601.329 601.329 0 0026.245-12.82l-179.477-236.54a587.587 587.587 0 00-19.282 22.012z" fill="#6C0000"/><path d="M419.38 774.835L248.273 551.726c-6.892 8.622-14.735 20.849-20.152 33.69l152.36 200.975c10.886-1.454 28.78-7.137 38.897-11.556z" fill="#FFF"/><path d="M376.986 794.767L219.12 586.542l1.766-4.178c5.064-12.016 12.805-24.965 21.248-35.533l6.262-7.849 183.316 239.033-9.19 4.014c-10.583 4.628-29.276 10.583-41.006 12.144l-4.531.594zM237.184 584.371l146.688 193.475c6.856-1.367 15.473-3.912 22.912-6.533L248.392 564.787a143.447 143.447 0 00-11.208 19.584z" fill="#6C0000"/><path d="M485.29900000000004 492.273a71.22 71.22 0 10142.439 0 71.22 71.22 0 10-142.439 0z" fill="#ECF3FE"/><path d="M556.518 571.33c-43.596 0-79.073-35.455-79.073-79.052s35.477-79.068 79.073-79.068 79.069 35.471 79.069 79.068-35.467 79.053-79.069 79.053zm0-142.422c-34.938 0-63.365 28.426-63.365 63.37 0 34.934 28.427 63.36 63.365 63.36s63.36-28.426 63.36-63.36c0-34.944-28.42-63.37-63.36-63.37z" fill="#6C0000"/><path d="M577.905 436.29c19.538 10.01 27.806 33.419 25.2 56.73-5.678 50.883-65.884 56.371-71.925 54.349a60.14 60.14 0 0027.51 6.63c33.371 0 60.426-27.054 60.426-60.426 0-26.65-17.265-49.254-41.211-57.282z" fill="#BED5E9"/><path d="M914.822 170.834a38.42 38.42 0 1076.84 0 38.42 38.42 0 10-76.84 0z" fill="#FFC700"/><path d="M953.247 217.098c-25.518 0-46.285-20.756-46.285-46.27s20.762-46.269 46.285-46.269 46.274 20.757 46.274 46.27-20.756 46.27-46.274 46.27zm0-76.84a30.607 30.607 0 00-30.572 30.57 30.607 30.607 0 0030.572 30.572 30.602 30.602 0 0030.566-30.571 30.607 30.607 0 00-30.566-30.572zM190.679 205.66a28.815 28.815 0 1057.63 0 28.815 28.815 0 10-57.63 0z" fill="#6C0000"/></svg>