<svg class="prefix__icon" width="200" height="200" viewBox="0 0 1024 1024" xmlns="http://www.w3.org/2000/svg"><path d="M178.17600000000004 563.6a339.799 339.799 0 10679.598 0 339.799 339.799 0 10-679.598 0z" fill="#00DFD5"/><path d="M517.714 910.505c-159.8 0-298.174-108.518-336.486-263.89-22.175-89.948-7.988-183.142 39.936-262.426S345.01 249.027 434.959 226.857a348.34 348.34 0 0183.298-10.158c159.79 0 298.163 108.508 336.476 263.874 45.762 185.677-68.05 373.986-253.727 419.769a348.948 348.948 0 01-83.292 10.163zm.538-679.762c-26.788 0-53.684 3.282-79.934 9.759-86.303 21.268-159.15 74.885-205.143 150.958-45.978 76.073-59.581 165.494-38.298 251.796 36.757 149.084 169.519 253.2 322.842 253.2 26.778 0 53.673-3.282 79.923-9.759 178.156-43.925 287.365-224.604 243.44-402.765-36.76-149.069-169.507-253.189-322.83-253.189z" fill="#6C0000"/><path d="M513.843 375.44c-235.571-8.377-487.895 37.427-491.5 138.828-3.604 101.381 244.829 164.987 480.4 173.363 235.571 8.377 487.895-37.427 491.5-138.813 3.604-101.397-244.829-165.002-480.4-173.379zm460.38 172.666c-2.314 65.08-204.16 130.786-470.83 121.303-266.675-9.482-463.344-89.349-461.03-154.434 2.314-65.08 204.16-130.806 470.835-121.324 266.67 9.482 463.34 89.375 461.025 154.455z" fill="#6B0306"/><path d="M238.341 388.613c-8.212 10.046-16.425 26.327-20.255 34.391 80.686-18.411 175.975-24.294 293.049-20.132 129.52 4.603 236.83 21.361 318.546 49.419-3.16-8.73-14.004-31.38-17.808-39.711C723 386.084 623.498 362.276 512.85 358.344c-100.71-3.574-188.416 13.931-274.509 30.27z" fill="#00DFD5"/><path d="M539.362 659.159a87.511 87.511 0 10175.021 0 87.511 87.511 0 10-175.022 0z" fill="#FFC700"/><path d="M626.954 752.517h-.01a92.754 92.754 0 01-68.393-29.737 92.774 92.774 0 01-24.986-66.939c1.828-51.614 44.457-91.433 96.625-89.984 51.44 1.828 91.812 45.169 89.994 96.625a92.995 92.995 0 01-93.23 90.035zm-.148-175.012a81.326 81.326 0 00-81.536 78.746 81.126 81.126 0 0021.852 58.562 81.07 81.07 0 0056.847 25.943l2.97.057a81.326 81.326 0 0081.536-78.746c1.602-45.01-33.705-82.918-78.7-84.505l-2.97-.057z" fill="#6C0000"/><path d="M787.206 274.76a18.611 18.611 0 1037.222 0 18.611 18.611 0 10-37.223 0z" fill="#FFC700"/><path d="M805.811 299.228l-.855-.01a24.5 24.5 0 01-23.588-25.329 24.371 24.371 0 0124.438-23.588c14.367.492 24.95 11.853 24.469 25.33a24.397 24.397 0 01-24.464 23.597zm.43-37.217c-7.347 0-12.938 5.396-13.179 12.288a12.774 12.774 0 0012.299 13.21l.445 5.862v-5.852a12.708 12.708 0 0012.754-12.309 12.77 12.77 0 00-12.298-13.2h-.02z" fill="#6C0000"/><path d="M69.91900000000001 418.212a46.141 46.141 0 1092.283 0 46.141 46.141 0 10-92.283 0z" fill="#FFC700"/><path d="M116.106 470.205h-.01l-1.884-.035c-28.652-1.02-51.134-25.155-50.115-53.806a51.825 51.825 0 0151.932-50.15l1.874.035a51.727 51.727 0 0136.209 16.538 51.64 51.64 0 0113.911 37.268 51.804 51.804 0 01-51.917 50.15zm-.082-92.288a40.146 40.146 0 00-40.233 38.861c-.788 22.206 16.63 40.904 38.825 41.692l1.475.036a40.11 40.11 0 0040.217-38.86 40.018 40.018 0 00-10.767-28.893 40.074 40.074 0 00-28.057-12.8l-1.46-.036z" fill="#6C0000"/><path d="M382.48 368.952s-35.011 51.006 40.391 150.61l45.47-89.518-85.862-61.092z" fill="#BED5E9"/><path d="M424.054 532.746l-6.78-8.95c-77.567-102.461-42.126-156.57-40.575-158.817l4.034-5.888 96.615 68.736-53.294 104.92zm-38.748-153.16c-5.397 15.52-12.15 58.118 36.48 126.613l37.545-73.933-74.025-52.68z" fill="#6C0000"/><path d="M536.632 263.634s60.247-14.075 125.62 92.38l-99.922 9.815-25.698-102.195z" fill="#BED5E9"/><path d="M556.995 373.402l-28.918-114.98 6.948-1.623c.578-.133 3.707-.799 9.01-.799 19.554 0 70.816 9.385 124.212 96.323l5.873 9.564-117.125 11.515zm-11.51-103.342l22.185 88.186 82.54-8.115c-45.942-70.026-87.292-79.59-104.725-80.071z" fill="#6C0000"/><path d="M519.516 238.996c-60.303-88.268-143.61-136.31-186.076-107.3S305.444 255.78 365.747 344.05c39.276 57.487 88.305 97.884 129.454 111.073l.005-.02c.246.122.512.23.83.27 1.418.18 21.202-51.496 76.733-52.157a3.297 3.297 0 001.808-.594 3.174 3.174 0 001.351-1.945 2.115 2.115 0 00-.01-.763c2.668-43.126-17.142-103.455-56.402-160.917z" fill="#BED5E9"/><path d="M496.056 462.387h-.036l-1.976-.169-1.976-.845c-43.387-13.783-93.148-56.325-132.112-113.356-29.752-43.546-49.582-90.179-55.843-131.308-6.528-42.926 2.478-75.172 25.359-90.803 9.405-6.426 20.654-9.682 33.418-9.682 48.6 0 113.869 47.739 162.422 118.804 38.743 56.71 60.268 118.165 57.672 164.593l.082.548-.277 1.987c-.445 2.39-2.002 4.73-4.24 6.261-1.781 1.178-3.701 1.782-5.647 1.818-28.948.343-52.142 15.749-68.96 45.783-1.829 3.287-3.564 6.37-7.886 6.37zm-133.16-332.119c-9.887 0-18.468 2.432-25.488 7.224-18.196 12.422-25.078 39.808-19.405 77.103 5.945 39.086 24.96 83.66 53.545 125.49 35.395 51.82 81.49 92.279 121.426 106.84 18.652-32.057 44.242-49.075 76.109-50.622 1.439-42.608-19.569-100.966-55.352-153.344-45.343-66.355-107.372-112.69-150.836-112.69z" fill="#6C0000"/><path d="M542.618 283.899l-146.422 98.944a336.2 336.2 0 0018.079 17.777L552.52 307.2a335.616 335.616 0 00-9.902-23.301z" fill="#FFF"/><path d="M413.63 409.518l-4.081-3.702a340.106 340.106 0 01-18.458-18.15l-5.668-6.011L545.49 273.49l3.487 7.429a334.29 334.29 0 0110.101 23.798l1.977 5.202-147.426 99.6zm-6.575-25.544a316.35 316.35 0 007.895 7.706l128.978-87.148a316.283 316.283 0 00-4.265-10.158l-132.608 89.6z" fill="#6C0000"/><path d="M565.847 332.268l-130.048 88.847a84.111 84.111 0 0018.227 12.308l117.09-79.042c-.477-6.134-3.108-16.318-5.269-22.113z" fill="#FFF"/><path d="M454.605 441.508l-3.646-1.782a90.511 90.511 0 01-19.83-13.373l-6.696-5.975 144.865-98.965 3.133 8.402c2.376 6.4 5.156 17.132 5.694 24.023l.307 4.07-123.827 83.6zm-6.938-19.989a73.95 73.95 0 005.919 3.728l110.003-74.266c-.41-2.345-.993-4.971-1.659-7.531l-114.263 78.07z" fill="#6C0000"/><path d="M372.122 246.881a39.895 39.895 0 1079.79 0 39.895 39.895 0 10-79.79 0z" fill="#ECF3FE"/><path d="M412.063 293.796c-.87 0-1.736-.02-2.617-.082a46.602 46.602 0 01-32.368-15.519 46.577 46.577 0 01-11.9-33.89c1.394-25.727 23.353-45.956 49.409-44.267a46.602 46.602 0 0132.369 15.534 46.577 46.577 0 0111.898 33.89 46.874 46.874 0 01-46.791 44.334zm-.092-79.785a32.85 32.85 0 00-32.779 31.063 32.604 32.604 0 008.346 23.736 32.604 32.604 0 0022.676 10.89l1.854.047a32.85 32.85 0 0032.778-31.053 32.666 32.666 0 00-8.346-23.752 32.727 32.727 0 00-22.686-10.89l-1.843-.041z" fill="#6C0000"/><path d="M381.363 233.2c6.2-10.618 19.543-14.525 32.507-12.354 28.283 4.741 29.507 38.584 28.186 41.897a33.843 33.843 0 00-60.693-29.542z" fill="#BED5E9"/></svg>