<svg class="prefix__icon" width="200" height="200" viewBox="0 0 1024 1024" xmlns="http://www.w3.org/2000/svg"><path d="M901.96 938.7H157.143c-30.208 0-54.702-24.493-54.702-54.701V813.69c0-30.208 24.494-54.702 54.702-54.702H901.96c30.208 0 54.702 24.494 54.702 54.702v70.308c-.02 30.228-24.494 54.702-54.702 54.702z" fill="#9EA2E3"/><path d="M901.96 938.7H536.433c-30.208 0-54.702-24.493-54.702-54.701V813.69c0-30.208 24.494-54.702 54.702-54.702h365.506c30.208 0 54.702 24.494 54.702 54.702v70.308c0 30.228-24.473 54.702-54.681 54.702z" fill="#D4D4FF"/><path d="M866.796 952.177H192.307c-56.955 0-103.3-46.347-103.3-103.301 0-4.22.265-8.459.757-12.637a13.464 13.464 0 0126.726 3.257 78.918 78.918 0 00-.573 9.359c0 42.127 34.263 76.39 76.39 76.39h674.489c42.127 0 76.39-34.263 76.39-76.39s-34.263-76.39-76.39-76.39H192.307c-20.398 0-39.588 7.946-54.026 22.384a13.435 13.435 0 01-19.026 0c-5.263-5.263-5.263-13.783 0-19.026 19.517-19.517 45.466-30.27 73.052-30.27h674.489c56.954 0 103.3 46.347 103.3 103.302 0 56.975-46.346 103.322-103.3 103.322z"/><path d="M827.474 759.01H231.629c-24.167 0-43.766-19.6-43.766-43.766v-56.259c0-24.166 19.6-43.766 43.766-43.766h595.845c24.166 0 43.766 19.6 43.766 43.766v56.259c-.02 24.166-19.6 43.765-43.766 43.765z" fill="#FFB357"/><path d="M827.474 759.01H525.496c-24.166 0-43.765-19.6-43.765-43.766v-56.259c0-24.166 19.599-43.766 43.765-43.766h301.978c24.166 0 43.766 19.6 43.766 43.766v56.259c-.02 24.166-19.6 43.765-43.766 43.765z" fill="#FFCE71"/><path d="M799.355 772.465H259.748c-47.063 0-85.34-38.277-85.34-85.34s38.277-85.34 85.34-85.34h539.607c47.063 0 85.34 38.276 85.34 85.34s-38.298 85.34-85.34 85.34zm-539.607-143.77c-32.215 0-58.43 26.214-58.43 58.43s26.215 58.429 58.43 58.429h539.607c32.215 0 58.43-26.214 58.43-58.43s-26.215-58.429-58.43-58.429H259.748z"/><path d="M601.436 297.472v86.057c0 39.69-32.174 71.885-71.885 71.885-39.69 0-71.884-32.174-71.884-71.885V218.317c0-39.69 32.174-71.885 71.884-71.885 39.69 0 71.885 32.174 71.885 71.885v20.52" fill="#D4D4FF"/><path d="M529.551 468.87c-47.063 0-85.34-38.278-85.34-85.341V218.317c0-47.063 38.277-85.34 85.34-85.34s85.34 38.277 85.34 85.34v20.52c0 7.435-6.02 13.456-13.455 13.456-7.434 0-13.455-6.021-13.455-13.455v-20.521c0-32.215-26.215-58.43-58.43-58.43s-58.43 26.215-58.43 58.43v165.232c0 32.215 26.215 58.43 58.43 58.43s58.43-26.215 58.43-58.43v-86.057c0-7.434 6.02-13.455 13.455-13.455 7.434 0 13.456 6.021 13.456 13.455v86.057c0 47.043-38.278 85.32-85.34 85.32z"/><path d="M729.948 615.24H329.155c-24.167 0-43.766-19.6-43.766-43.766v-56.259c0-24.166 19.6-43.765 43.766-43.765h400.793c24.167 0 43.766 19.599 43.766 43.765v56.259c-.02 24.166-19.6 43.766-43.766 43.766z" fill="#00CE8E"/><path d="M729.948 615.24H525.517c-24.167 0-43.766-19.6-43.766-43.766v-56.259c0-24.166 19.6-43.765 43.766-43.765h204.431c24.167 0 43.766 19.599 43.766 43.765v56.259c-.02 24.166-19.6 43.766-43.766 43.766z" fill="#5FD9B3"/><path d="M701.809 628.695H357.274c-47.063 0-85.34-38.277-85.34-85.34s38.277-85.34 85.34-85.34h344.535c47.063 0 85.34 38.277 85.34 85.34s-38.277 85.34-85.34 85.34zm-344.535-143.77c-32.215 0-58.43 26.215-58.43 58.43s26.215 58.43 58.43 58.43h344.535c32.215 0 58.43-26.215 58.43-58.43s-26.215-58.43-58.43-58.43H357.274z"/><path d="M640.287 471.47H418.816c-24.166 0-43.766-19.6-43.766-43.766v-56.258c0-24.167 19.6-43.766 43.766-43.766h221.47c24.167 0 43.766 19.6 43.766 43.766v56.258c0 24.167-19.599 43.766-43.765 43.766z" fill="#2ED0FC"/><path d="M640.287 471.47h-114.79c-24.167 0-43.766-19.6-43.766-43.766v-56.258c0-24.167 19.599-43.766 43.765-43.766h114.79c24.167 0 43.766 19.6 43.766 43.766v56.258c0 24.167-19.599 43.766-43.765 43.766z" fill="#7CE3FF"/><path d="M612.168 484.925H446.935c-47.063 0-85.34-38.277-85.34-85.34s38.277-85.34 85.34-85.34h165.233c47.063 0 85.34 38.277 85.34 85.34s-38.298 85.34-85.34 85.34zm-165.233-143.77c-32.215 0-58.43 26.215-58.43 58.43s26.215 58.43 58.43 58.43h165.233c32.215 0 58.43-26.215 58.43-58.43s-26.215-58.43-58.43-58.43H446.935z"/><path d="M371.323 873.984a47.432 36.844 0 1094.863 0 47.432 36.844 0 10-94.863 0z" fill="#FF8E9E"/><path d="M428.196 850.596c-7.434 0-13.456-6.021-13.456-13.456v-25.108c0-7.434 6.022-13.455 13.456-13.455s13.455 6.02 13.455 13.455v25.108c0 7.435-6.041 13.456-13.455 13.456z"/><path d="M591.995 865.608a47.432 36.844 0 1094.863 0 47.432 36.844 0 10-94.863 0z" fill="#FF8E9E"/><path d="M616.632 850.596c-7.434 0-13.455-6.021-13.455-13.456v-25.108c0-7.434 6.021-13.455 13.455-13.455 7.435 0 13.456 6.02 13.456 13.455v25.108c0 7.435-6.021 13.456-13.456 13.456zm-92.774 6.717c-18.268 0-32.789-8.622-40.018-15.892a13.435 13.435 0 01.061-19.026 13.45 13.45 0 0118.944-.041c2.028 1.946 19.927 17.715 45.67-1.25a13.472 13.472 0 0118.822 2.847c4.403 5.98 3.133 14.418-2.847 18.821-14.52 10.691-28.406 14.541-40.632 14.541z"/></svg>