<svg class="prefix__icon" width="200" height="200" viewBox="0 0 1024 1024" xmlns="http://www.w3.org/2000/svg"><path d="M654.95 766.587v105.472c0 21.483-20.582 38.891-45.957 38.891s-45.957-17.408-45.957-38.891V766.587" fill="#00CE8E"/><path d="M608.993 921.6c-31.211 0-56.606-22.22-56.606-49.52V766.606c0-5.877 4.771-10.629 10.629-10.629s10.629 4.772 10.629 10.63v105.471c0 15.565 15.851 28.242 35.328 28.242S644.3 887.644 644.3 872.08V766.607c0-5.877 4.772-10.629 10.629-10.629s10.629 4.772 10.629 10.63v105.471c.041 27.3-25.354 49.521-56.566 49.521z"/><path d="M553.452 488.919c-119.44 4.096-85.955-174.449-64.533-255.918 9.482-36.065-1.188-75.018-29.163-99.676-28.488-25.109-58.512-23.409-83.19-13.64-29.061 11.49-51.733 34.755-64.02 63.345-.103.225-.349.307-.574.184-16.999-9.4-36.946-14.09-58.122-12.267-49.193 4.26-88.781 44.4-92.386 93.655-4.239 57.978 40.182 106.578 96.604 109.178-24.37 127.673-27.36 281.478 64.492 371.958 202.67 199.66 365.117-15.892 434.237 84.194 69.1 100.085 94.25 39.178 94.25 39.178 69.918-501.986-192.963-383.775-297.595-380.191z" fill="#00CE8E"/><path d="M423.014 766.587v105.472c0 21.483-20.582 38.891-45.957 38.891S331.1 893.542 331.1 872.06v-105.78l91.914.308z" fill="#00CE8E"/><path d="M331.1 807.22c-5.878 0-10.629-4.773-10.629-10.63v-29.983c0-5.877 4.772-10.629 10.63-10.629 5.877 0 10.628 4.772 10.628 10.63v29.982c0 5.857-4.772 10.63-10.629 10.63zm45.957 114.38c-31.211 0-56.606-22.22-56.606-49.52v-13.538c0-5.878 4.771-10.629 10.629-10.629 5.877 0 10.629 4.772 10.629 10.63v13.536c0 15.565 15.851 28.242 35.328 28.242s35.307-12.677 35.307-28.242V766.607c0-5.877 4.772-10.629 10.63-10.629 5.877 0 10.629 4.772 10.629 10.63v105.471c.04 27.3-25.355 49.521-56.546 49.521z"/><path d="M553.452 488.919c-36.291 1.25-58.45-14.397-71.128-39.014-4.976 48.62 1.29 96.235 27.69 135.66 112.619 168.12 256.655 41.205 290.467 120.831 33.813 79.626 60.068 40.796 60.068 40.796.635-1.802 1.208-3.522 1.843-5.304 9.872-353.239-214.282-256.225-308.94-252.969z" fill="#5FD9B3"/><path d="M825.078 898.13c-22.958 0-48.19-20.378-77.026-62.136-22.712-32.891-56.893-25.826-115.343-10.466-81.408 21.381-192.901 50.647-317.583-72.192-43.54-42.905-70.103-102.912-78.93-178.38-6.533-55.931-3.4-120.382 9.339-191.734-25.744-3.953-49.09-16.65-66.683-36.475-20.275-22.835-30.208-52.286-27.976-82.924 3.973-54.292 47.841-98.775 102.072-103.465 18.822-1.618 37.438 1.414 54.477 8.786 14.336-27.095 37.663-48.435 65.25-59.35 34.529-13.66 67.092-8.275 94.126 15.564 30.31 26.706 43.028 70.021 32.42 110.367-13.149 49.971-39.445 171.56.04 221 12.247 15.339 29.901 22.405 53.842 21.585 13.722-.47 31.069-3.113 49.44-5.918 37.908-5.796 85.073-13.005 128.552-5.284 5.775 1.024 9.646 6.553 8.622 12.329s-6.533 9.646-12.329 8.622c-40.038-7.086-83.374-.471-121.63 5.366-19.006 2.908-36.967 5.652-51.917 6.164-30.7 1.065-54.682-8.888-71.21-29.573-43.867-54.927-21.319-173.752-3.972-239.698 8.58-32.625-1.577-67.563-25.908-88.986-20.95-18.452-45.26-22.405-72.233-11.735-25.559 10.118-46.755 31.13-58.163 57.652a11.194 11.194 0 01-6.594 6.103 11.1 11.1 0 01-8.91-.799c-15.81-8.745-33.812-12.534-52.06-10.977-43.929 3.788-79.482 39.833-82.698 83.824-1.822 24.843 6.247 48.743 22.672 67.257 16.466 18.555 39.137 29.388 63.836 30.535l12.267.574-2.293 12.062c-22.119 115.876-29.41 272.835 61.501 362.394 116.06 114.34 216.535 87.962 297.247 66.765 56.852-14.93 105.963-27.812 138.26 18.964 34.345 49.746 54.231 53.597 61.195 52.86 7.905-.779 12.554-8.05 14.008-10.773 22.16-160.42 11.55-271.094-31.54-329.032a10.65 10.65 0 012.192-14.889 10.65 10.65 0 0114.889 2.191c47.33 63.652 58.88 176.948 35.308 346.338l-.185 1.351-.512 1.25c-3.42 8.294-13.967 22.814-31.764 24.72-1.393.081-2.745.163-4.096.163zM317.092 173.875c.02 0 .02.02.04.02 0 0-.02 0-.04-.02z"/><path d="M262.86 384.532c-61.93 0-112.312-50.38-112.312-112.312 0-61.931 50.381-112.312 112.313-112.312 5.878 0 10.629 4.772 10.629 10.629 0 5.878-4.772 10.63-10.63 10.63-50.196 0-91.033 40.836-91.033 91.033s40.837 91.033 91.034 91.033c5.878 0 10.629 4.772 10.629 10.63s-4.751 10.67-10.63 10.67z"/><path d="M332.636 384.532h-69.755c-5.877 0-10.629-4.771-10.629-10.629s4.772-10.629 10.63-10.629h69.754c5.878 0 10.63 4.772 10.63 10.63s-4.752 10.628-10.63 10.628zM207.135 281.887a7.922 7.922 0 01-5.632-2.335 7.985 7.985 0 010-11.284l24.35-24.351a7.985 7.985 0 0111.285 0 7.985 7.985 0 010 11.284l-24.35 24.351a8.004 8.004 0 01-5.653 2.335z"/><path d="M337.408 263.987a48.046 41.697 0 1096.092 0 48.046 41.697 0 10-96.092 0z" fill="#FF8E9E"/><path d="M360.694 235.684a7.984 7.984 0 01-7.987-7.987v-25.13a7.984 7.984 0 017.987-7.987 7.984 7.984 0 017.987 7.988v25.15a7.967 7.967 0 01-7.987 7.966z"/><path d="M514.929 766.587v105.472c0 21.483-20.583 38.891-45.957 38.891s-45.958-17.408-45.958-38.891V766.587" fill="#00CE8E"/><path d="M468.972 921.6c-31.212 0-56.607-22.22-56.607-49.52V766.606c0-5.877 4.772-10.629 10.629-10.629 5.878 0 10.629 4.772 10.629 10.63v105.471c0 15.565 15.852 28.242 35.328 28.242s35.328-12.677 35.328-28.242V766.607c0-5.877 4.772-10.629 10.63-10.629s10.628 4.772 10.628 10.63v105.471c.02 27.3-25.354 49.521-56.565 49.521z"/><path d="M746.865 766.587v105.472c0 21.483-20.583 38.891-45.957 38.891s-45.958-17.408-45.958-38.891V766.587" fill="#00CE8E"/><path d="M700.908 921.6c-31.212 0-56.607-22.22-56.607-49.52V766.606c0-5.877 4.772-10.629 10.629-10.629s10.629 4.772 10.629 10.63v105.471c0 15.565 15.852 28.242 35.328 28.242s35.328-12.677 35.328-28.242V766.607c0-5.877 4.772-10.629 10.63-10.629s10.628 4.772 10.628 10.63v105.471c.041 27.3-25.354 49.521-56.565 49.521z"/></svg>