<svg class="prefix__icon" width="200" height="200" viewBox="0 0 1024 1024" xmlns="http://www.w3.org/2000/svg"><path d="M171.346 521.441a391.644 391.644 0 10783.288 0 391.644 391.644 0 10-783.288 0z" fill="#00DFD5"/><path d="M562.99 921.18c-220.421 0-399.729-179.323-399.729-399.739s179.308-399.739 399.73-399.739 399.728 179.323 399.728 399.74S783.41 921.18 562.99 921.18zm0-783.283c-211.492 0-383.554 172.058-383.554 383.55S351.498 904.995 562.99 904.995s383.555-172.058 383.555-383.55S774.477 137.897 562.99 137.897z" fill="#6C0000"/><path d="M678.63 725.125a155.837 155.837 0 10311.675 0 155.837 155.837 0 10-311.675 0z" fill="#ECF3FE"/><path d="M834.468 889.057c-90.394 0-163.922-73.538-163.922-163.927s73.528-163.937 163.922-163.937S998.39 634.737 998.39 725.13s-73.534 163.927-163.922 163.927zm0-311.675c-81.46 0-147.748 66.279-147.748 147.748s66.284 147.738 147.748 147.738 147.748-66.273 147.748-147.738-66.289-147.748-147.748-147.748z" fill="#6C0000"/><path d="M881.818 590.838c46.658 23.91 66.411 79.815 60.195 135.506-13.562 121.533-157.368 134.645-171.79 129.807a143.652 143.652 0 0065.704 15.841c79.708 0 144.323-64.614 144.323-144.322.005-63.662-41.232-117.658-98.432-136.832z" fill="#BED5E9"/><path d="M587.873 314.685a69.074 69.074 0 10138.148 0 69.074 69.074 0 10-138.148 0z" fill="#9DEDDC"/><path d="M656.947 390.502c-41.8 0-75.812-34.012-75.812-75.817s34.013-75.817 75.812-75.817c41.81 0 75.822 34.013 75.822 75.817s-34.007 75.817-75.822 75.817zm0-138.142c-34.365 0-62.32 27.96-62.32 62.325s27.955 62.326 62.32 62.326c34.366 0 62.336-27.96 62.336-62.326s-27.965-62.325-62.336-62.325z" fill="#6B0204"/><path d="M352.425 376.74a45.47 45.47 0 1090.941 0 45.47 45.47 0 10-90.941 0z" fill="#9DEDDC"/><path d="M397.89 428.954c-28.794 0-52.218-23.42-52.218-52.22s23.419-52.218 52.219-52.218 52.218 23.419 52.218 52.219-23.418 52.219-52.218 52.219zm0-90.942c-21.355 0-38.727 17.377-38.727 38.728s17.377 38.728 38.728 38.728 38.727-17.378 38.727-38.728-17.372-38.728-38.727-38.728z" fill="#6B0204"/><path d="M308.342 681.815a73.713 73.713 0 10147.425 0 73.713 73.713 0 10-147.425 0z" fill="#9DEDDC"/><path d="M382.06 762.266c-44.365 0-80.461-36.096-80.461-80.456s36.096-80.456 80.46-80.456c44.355 0 80.446 36.096 80.446 80.456s-36.09 80.456-80.445 80.456zm0-147.415c-36.926 0-66.97 30.039-66.97 66.964s30.05 66.965 66.97 66.965 66.959-30.04 66.959-66.965c-.005-36.925-30.04-66.964-66.96-66.964z" fill="#6B0204"/><path d="M19.128 242.836a99.758 99.758 0 10199.516 0 99.758 99.758 0 10-199.516 0z" fill="#ECF3FE"/><path d="M118.892 350.69c-59.474 0-107.848-48.385-107.848-107.854s48.368-107.852 107.848-107.852 107.847 48.384 107.847 107.852S178.365 350.69 118.892 350.69zm0-199.517c-50.545 0-91.669 41.119-91.669 91.663S68.347 334.5 118.892 334.5s91.668-41.119 91.668-91.664-41.124-91.663-91.668-91.663z" fill="#6C0000"/><path d="M148.987 161.357c28.38 14.546 40.392 48.548 36.613 82.416-8.253 73.923-95.718 81.895-104.489 78.956a87.373 87.373 0 0039.967 9.636c48.481 0 87.782-39.301 87.782-87.783-.005-38.722-25.083-71.562-59.873-83.225z" fill="#BED5E9"/></svg>