<svg class="prefix__icon" width="200" height="200" viewBox="0 0 1024 1024" xmlns="http://www.w3.org/2000/svg"><path d="M62.289999999999964 510.449a459.576 459.576 0 10919.153 0 459.576 459.576 0 10-919.153 0z" fill="#00DFD5"/><path d="M521.866 979.507c-258.647 0-469.074-210.411-469.074-469.069S263.22 41.375 521.866 41.375 990.94 251.786 990.94 510.444 780.513 979.507 521.866 979.507zm0-919.152c-248.176 0-450.078 201.912-450.078 450.083S273.69 960.522 521.866 960.522 971.945 758.61 971.945 510.438 770.043 60.355 521.866 60.355z" fill="#6C0000"/><path d="M639.519 68.137c21.386 5.176-33.987 58.189-11.33 87.28s13.603 27.362 22.655 29.092c49.372 9.452 79.693-32.517 112.492-25.43 13.076 2.826 21.058 29.87 32.389 58.966 11.33 29.092 47.375 21.909 47.703 34.35.517 19.835 14.423 49.844-8.238 78.94-22.656 29.093-98.176 20.03-116.7 32.876-24.597 17.06-221.958-77.394-90.302 53.049 13.24 13.117 71.199-.733 91.96 15.047 90.153 68.516 89.293-5.35 111.95 130.422 22.655 135.772-12.96 163.23-22.657 174.561-55.337 64.666-78.172 62.32-86.8 43.822-11.273-24.171 86.8-82.616 7.502-131.102l-79.299-48.492s-54.958-37.494-39.49-60.416c8.73-12.938 44.119-39.516-46.505-117.1s-131.124 23.389-176.436-73.59-28.697-120.125-28.697-188.01-1.659-69.76-1.659-69.76 125.404-62.286 281.462-24.505z" fill="#FFEC43"/><path d="M738.596 800.353c-10.133 0-18.34-5.642-23.127-15.892-5.699-12.211 4.009-25.953 15.257-41.846 12.125-17.157 25.867-36.603 22.114-54.83-2.325-11.27-11.1-21.407-26.819-31.022l-79.298-48.492c-6.626-4.515-61.246-42.972-41.923-71.582.86-1.285 1.94-2.673 3.144-4.204 10.014-12.8 28.672-36.633-48.246-102.472-31.17-26.68-54.58-30.11-71.486-30.11-8.663 0-16.803 1.05-24.668 2.058-7.372.942-14.336 1.838-21.284 1.838-26.736 0-44.41-14.484-61.02-50.022-35.906-76.872-33.766-109.707-31.063-151.286.804-12.273 1.634-24.98 1.634-40.085 0-47.41-.82-62.003-1.214-66.252l-5.325-5.996 9.268-4.608c3.082-1.53 76.723-37.499 182.225-37.499 35.477 0 70.672 4.173 104.617 12.38 5.75 1.393 8.448 4.854 9.693 7.496 3.947 8.361-1.03 18.611-7.906 32.804-8.13 16.758-18.247 37.606-8.734 49.823 11.714 15.058 15.441 22.461 17.228 26.06.21.031.436.077.671.123a69.345 69.345 0 0013.056 1.255c18.52 0 34.232-7.511 49.429-14.792 16.931-8.1 33.735-15.427 50.201-11.843 15.288 3.293 23.148 24.223 33.101 50.704 1.608 4.265 3.256 8.673 4.987 13.107 5.289 13.573 17.551 17.203 28.375 20.403 9.18 2.704 19.584 5.78 19.87 16.635.108 4.25.989 9.446 1.915 14.96 3.154 18.673 7.476 44.258-11.827 69.034-15.892 20.403-50.478 24.053-80.983 27.284-15.682 1.67-31.897 3.384-37.453 7.235-3.486 2.427-8.16 3.553-14.71 3.553h-.015c-13.015 0-32.43-4.608-52.987-9.492-20.495-4.854-41.697-9.877-55.147-9.877-7.296 0-8.975 1.53-8.99 1.546-.042.261-2.653 10.343 42.608 55.184 4.024 4.003 21.99 4.126 35.097 4.219 21.207.153 43.136.322 56.09 10.158 31.575 24.007 50.97 29.711 65.132 33.884 30.243 8.888 35.527 15.815 49.827 101.54 21.812 130.662-9.18 164.362-22.415 178.754l-2.033 2.258c-33.356 38.968-58.496 57.907-76.866 57.907zM488.218 384.072c28.769 0 54.753 10.772 81.781 33.915 77.917 66.698 69.207 100.244 50.407 124.252-.942 1.203-1.808 2.304-2.483 3.292-7.552 11.192 17.848 36.127 37.386 49.449l78.966 48.276c19.4 11.858 30.853 25.77 34.063 41.334 5.146 24.965-11.392 48.353-24.689 67.164-6.23 8.812-15.652 22.134-13.834 26.03 2.775 5.934 5.996 6.738 8.78 6.738 7.476 0 25.836-6.8 64.84-52.372l2.402-2.673c10.665-11.592 38.994-42.399 18.457-165.442-13.609-81.588-16.947-82.56-38.681-88.96-14.474-4.265-36.347-10.696-70.247-36.45-8.75-6.66-28.866-6.8-46.622-6.942-20.127-.139-37.51-.262-46.126-8.797-47.38-46.945-50.115-62.633-46.019-72.591 3.067-7.45 10.982-11.223 23.542-11.223 15.293 0 37.417 5.238 58.803 10.312 18.765 4.449 38.175 9.057 49.331 9.057h.01c4.414 0 5.714-.742 5.73-.758 8.857-6.139 24.709-7.823 44.774-9.938 26.025-2.75 58.41-6.185 70.165-21.284 15.027-19.276 11.668-39.137 8.709-56.668-.958-5.657-1.864-11.023-2.094-16.061-1.67-.942-5.602-2.12-8.581-2.985-12.16-3.6-30.531-9.027-38.63-29.834-1.757-4.516-3.431-8.965-5.054-13.277-6.585-17.53-14.777-39.342-21.632-40.821-11.817-2.504-24.832 3.384-40.018 10.665-16.005 7.649-34.146 16.338-56.259 16.338-5.32 0-10.706-.512-16.02-1.531-6.503-1.24-8.832-2.52-11.833-8.535-1.536-3.108-4.746-9.554-15.59-23.465-15.565-20.004-2.534-46.853 6.979-66.468 2.836-5.857 6.958-14.346 7.618-18.258a429.107 429.107 0 00-99.778-11.684c-86.493 0-152.177 25.738-170.23 33.608.711 9.042 1.106 27.13 1.106 64.921 0 15.627-.88 29.169-1.664 41.12-2.658 40.836-4.583 70.363 29.609 143.538 17.638 37.75 32.722 40.904 46.674 40.904 5.934 0 12.41-.835 19.266-1.715 7.972-1.02 17.009-2.181 26.686-2.181z" fill="#6B0204"/><path d="M162.39100000000002 550.738a32.89 32.89 0 1065.782 0 32.89 32.89 0 10-65.782 0z" fill="#FFEB43"/><path d="M195.282 591.55c-22.497 0-40.801-18.305-40.801-40.807s18.304-40.806 40.8-40.806 40.802 18.304 40.802 40.806-18.299 40.806-40.801 40.806zm0-65.787a25.001 25.001 0 00-24.97 24.98 25.001 25.001 0 0024.97 24.98 25.001 25.001 0 0024.97-24.98 24.996 24.996 0 00-24.97-24.98z" fill="#6B0306"/><path d="M365.466 733.609a52.076 52.076 0 10104.15 0 52.076 52.076 0 10-104.15 0z" fill="#FFEB43"/><path d="M417.541 793.6c-33.08 0-59.99-26.91-59.99-59.991s26.91-59.991 59.99-59.991c33.07 0 59.986 26.91 59.986 59.991s-26.91 59.991-59.986 59.991zm0-104.156c-24.356 0-44.165 19.814-44.165 44.165s19.81 44.165 44.165 44.165c24.346 0 44.155-19.814 44.155-44.165s-19.81-44.165-44.155-44.165z" fill="#6B0306"/><path d="M294.871 408.228a10.035 10.035 0 1020.07 0 10.035 10.035 0 10-20.07 0z" fill="#FFEB43"/><path d="M304.911 426.179a17.971 17.971 0 01-17.955-17.946 17.971 17.971 0 0117.955-17.961 17.971 17.971 0 0117.946 17.961 17.971 17.971 0 01-17.946 17.946zm0-20.076a2.13 2.13 0 00-2.124 2.135c0 2.35 4.25 2.366 4.244 0a2.135 2.135 0 00-2.12-2.135z" fill="#6B0306"/><path d="M882.191 516.009a10.035 10.035 0 1020.07 0 10.035 10.035 0 10-20.07 0z" fill="#FFEB43"/><path d="M892.227 533.955a17.971 17.971 0 01-17.956-17.946 17.971 17.971 0 0117.956-17.946 17.971 17.971 0 0117.945 17.946 17.966 17.966 0 01-17.945 17.946zm0-20.066a2.12 2.12 0 00-2.125 2.12c.01 2.35 4.25 2.365 4.244 0a2.12 2.12 0 00-2.12-2.12z" fill="#6B0306"/><path d="M37.652 934.175a46.47 46.47 0 1092.939 0 46.47 46.47 0 10-92.939 0z" fill="#5EB1BE"/><path d="M84.116 990.126c-30.863 0-55.966-25.103-55.966-55.956s25.103-55.957 55.966-55.957 55.967 25.103 55.967 55.957-25.103 55.956-55.967 55.956zm0-92.928c-20.382 0-36.966 16.589-36.966 36.977s16.584 36.976 36.966 36.976 36.967-16.588 36.967-36.976-16.584-36.977-36.967-36.977z" fill="#6C0000"/></svg>