<svg class="prefix__icon" width="200" height="200" viewBox="0 0 1024 1024" xmlns="http://www.w3.org/2000/svg"><path d="M65.23399999999998 527.432a448.364 448.364 0 10896.727 0 448.364 448.364 0 10-896.727 0z" fill="#fdd207"/><path d="M513.597 985.068c-252.344 0-457.62-205.292-457.62-457.631s205.276-457.63 457.62-457.63 457.62 205.29 457.62 457.63-205.275 457.63-457.62 457.63zm0-896.728c-242.12 0-439.101 196.977-439.101 439.097s196.982 439.096 439.101 439.096S952.7 769.556 952.7 527.437 755.717 88.34 513.597 88.34z" fill="#6C0000"/><path d="M805.007 134c25.918 17.373 35.794 48.072 22.052 68.573L723.026 357.79c-13.742 20.5-45.89 23.035-71.808 5.662-25.918-17.372-35.794-48.071-22.052-68.572L733.2 139.663c13.737-20.5 45.89-23.035 71.808-5.662z" fill="#FFC700"/><path d="M687.421 384.261c-14.07 0-28.759-4.66-41.364-13.107-30.116-20.193-41.14-56.725-24.581-81.434l104.043-155.218c9.063-13.537 24.853-21.299 43.28-21.299 14.07 0 28.759 4.654 41.364 13.107 30.131 20.194 41.155 56.72 24.597 81.429L730.716 362.957c-9.062 13.537-24.852 21.304-43.295 21.304zm81.373-252.523c-12.155 0-22.318 4.766-27.9 13.081L636.852 300.037c-10.86 16.225-2.11 41.221 19.513 55.721 20.766 13.926 48.604 12.334 58.967-3.123l104.043-155.218c10.86-16.22 2.11-41.216-19.528-55.716-9.59-6.43-20.618-9.963-31.052-9.963z" fill="#6C0000"/><path d="M680.832 143.903a114.673 114.673 0 10229.345 0 114.673 114.673 0 10-229.345 0z" fill="#FFEC43"/><path d="M795.505 267.837c-68.347 0-123.935-55.593-123.935-123.934s55.588-123.94 123.935-123.94 123.934 55.603 123.934 123.94-55.593 123.934-123.934 123.934zm0-229.34c-58.123 0-105.416 47.283-105.416 105.406s47.293 105.4 105.416 105.4 105.415-47.278 105.415-105.4S853.622 38.497 795.505 38.497z" fill="#6B0204"/><path d="M829.082 45.271c33.633 17.085 47.866 57.037 43.386 96.83-9.774 86.845-113.428 96.215-123.822 92.759a104.248 104.248 0 0047.36 11.32c57.452 0 104.023-46.172 104.023-103.132 0-45.492-29.716-84.076-70.947-97.777z" fill="#fdd207"/><path d="M204.36 589.087a20.516 20.516 0 1041.031 0 20.516 20.516 0 10-41.031 0z" fill="#FFEB43"/><path d="M224.88 617.324a28.268 28.268 0 01-28.246-28.232 28.273 28.273 0 0128.247-28.237 28.268 28.268 0 0128.231 28.237 28.262 28.262 0 01-28.231 28.232zm0-41.027a12.815 12.815 0 00-12.804 12.795 12.8 12.8 0 0025.594 0 12.8 12.8 0 00-12.79-12.795z" fill="#6B0306"/><path d="M432.927 825.093a27.955 27.955 0 1055.91 0 27.955 27.955 0 10-55.91 0z" fill="#FFEB43"/><path d="M460.887 863.57c-21.233 0-38.492-17.26-38.492-38.472 0-21.217 17.26-38.477 38.492-38.477 21.212 0 38.472 17.26 38.472 38.477 0 21.212-17.26 38.472-38.472 38.472zm0-55.905a17.464 17.464 0 00-17.449 17.433c0 9.605 7.829 17.429 17.449 17.429s17.429-7.824 17.429-17.429a17.439 17.439 0 00-17.429-17.433z" fill="#6B0306"/><path d="M825.948 518.697a16.696 16.696 0 1033.393 0 16.696 16.696 0 10-33.393 0z" fill="#FFEB43"/><path d="M842.644 543.114c-13.465 0-24.417-10.957-24.417-24.417s10.947-24.417 24.417-24.417c13.466 0 24.418 10.956 24.418 24.417a24.448 24.448 0 01-24.418 24.417zm0-33.392c-4.945 0-8.975 4.024-8.975 8.975 0 4.946 4.024 8.975 8.975 8.975 4.946 0 8.976-4.024 8.976-8.975a8.99 8.99 0 00-8.976-8.975z" fill="#6B0306"/><path d="M286.06 364.058a9.39 9.39 0 1018.78 0 9.39 9.39 0 10-18.78 0z" fill="#FFEB43"/><path d="M295.444 381.169a17.126 17.126 0 01-17.1-17.111 17.126 17.126 0 0117.1-17.117 17.132 17.132 0 0117.117 17.117 17.132 17.132 0 01-17.117 17.11z" fill="#6B0306"/><path d="M802.0840000000001 687.534a9.39 9.39 0 1018.78 0 9.39 9.39 0 10-18.78 0z" fill="#FFEB43"/><path d="M811.474 704.65a17.132 17.132 0 01-17.116-17.116c0-9.431 7.675-17.111 17.116-17.111s17.116 7.675 17.116 17.111-7.675 17.116-17.116 17.116z" fill="#6B0306"/></svg>