<svg class="prefix__icon" width="200" height="200" viewBox="0 0 1024 1024" xmlns="http://www.w3.org/2000/svg"><path d="M336.732 430.06c21.463-37.172 45.118-71.23 70.042-101.581 14.684-73.36 47.534-140.165 93.655-195.523-133.325 4.28-261.448 75.285-333.066 199.312C57.2 523.08 122.573 767.078 313.385 877.24c-97.26-56.156-86.815-256.368 23.347-447.18z" fill="#FFCE71"/><path d="M712.356 186.245c-66.806-38.564-140.104-55.583-211.927-53.289-46.121 55.358-78.971 122.143-93.655 195.523C509.727 202.998 634.02 141.025 712.356 186.245z" fill="#FCE3A0"/><path d="M454.8 632.32c-36.066-64.02-56.669-137.892-56.669-216.617 0-29.86 2.99-59.023 8.622-87.224-24.903 30.351-48.578 64.41-70.041 101.58-110.162 190.813-120.607 391.025-23.348 447.202 69.428 40.08 174.94-4.055 269.722-101.95A444.56 444.56 0 01454.8 632.32z" fill="#55DAFE"/><path d="M712.356 186.245c-78.336-45.22-202.609 16.753-305.582 142.234a443.462 443.462 0 00-8.622 87.224c0 78.705 20.603 152.597 56.668 216.617 31.846 56.545 75.776 105.37 128.307 142.991 38.031-39.28 74.342-87.224 105.902-141.865 110.142-190.812 120.607-391.024 23.327-447.2z" fill="#B9F0FF"/><path d="M583.107 775.311c-94.782 97.895-200.295 142.03-269.722 101.95 53.658 30.986 111.534 48.087 169.451 52.408a404.929 404.929 0 0038.585 1.004c19.251-.43 38.4-2.253 57.282-5.428a387.041 387.041 0 0028.14-5.775 385.243 385.243 0 009.277-2.376 400.155 400.155 0 0045.384-15.114 393.339 393.339 0 0034.898-15.974 397.874 397.874 0 0049.336-30.229 327.47 327.47 0 008.684-6.43c-62.894-12.35-121.037-38.052-171.315-74.036z" fill="#FF8E9E"/><path d="M689.009 633.446c-31.56 54.641-67.871 102.585-105.902 141.865 50.278 36.004 108.4 61.686 171.335 74.056a431.745 431.745 0 006.82-5.284 396.784 396.784 0 0043.213-39.915 377.657 377.657 0 006.676-7.332 401.512 401.512 0 0012.862-15.258c12.534-15.646 24.023-32.42 34.365-50.32 110.162-190.811 44.79-434.81-146.022-544.972 97.28 56.136 86.815 256.348-23.347 447.16z" fill="#FFB5C0"/><path d="M512.184 941.26c-69.447 0-139.755-17.653-204.103-54.804-94.74-54.702-162.53-143.032-190.833-248.709s-13.783-216.064 40.919-310.804a421.632 421.632 0 0122.61-35 10.65 10.65 0 0114.848-2.417 10.627 10.627 0 012.417 14.848 392.308 392.308 0 00-21.443 33.198c-51.876 89.846-65.659 194.498-38.81 294.687 26.85 100.188 91.095 183.93 180.92 235.786 185.427 107.049 423.384 43.295 530.433-142.131 51.855-89.826 65.638-194.478 38.789-294.667-26.85-100.188-91.095-183.93-180.92-235.786-146.678-84.685-329.483-65.229-454.902 48.415a10.63 10.63 0 01-15.033-.737 10.63 10.63 0 01.738-15.033c63.754-57.774 142.868-93.511 228.782-103.342 87.634-10.035 174.448 8.049 251.064 52.286 94.74 54.702 162.53 143.032 190.833 248.709 28.324 105.677 13.783 216.064-40.92 310.804C791.819 867.8 653.845 941.24 512.185 941.261z"/><path d="M371.323 902.636c-23.204 0-44.524-5.366-63.242-16.18-50.688-29.266-76.063-94.208-71.435-182.866 4.486-86.118 36.762-185.139 90.87-278.855 54.108-93.717 123.74-171.172 196.055-218.133 74.465-48.333 143.401-58.839 194.09-29.573 50.687 29.266 76.062 94.208 71.433 182.866-4.485 86.118-36.761 185.14-90.87 278.856-34.61 59.945-76.656 114.626-121.59 158.085a10.662 10.662 0 01-15.052-.246c-4.096-4.219-3.973-10.957.246-15.053 43.52-42.107 84.316-95.17 117.944-153.436 52.45-90.85 83.722-186.511 88.044-269.332 4.178-80.261-17.408-138.281-60.826-163.328-43.397-25.068-104.448-14.766-171.868 29-69.57 45.158-136.766 120.053-189.215 210.923-52.45 90.85-83.722 186.511-88.043 269.332-4.178 80.261 17.408 138.281 60.825 163.328 41.513 23.962 99.758 15.422 164.025-24.043 5.017-3.072 11.57-1.516 14.643 3.502s1.515 11.55-3.502 14.643c-43.746 26.89-85.545 40.51-122.532 40.51z"/><path d="M375.357 528.466a48.497 37.683 0 1096.994 0 48.497 37.683 0 10-96.994 0z" fill="#FF8E9E"/><path d="M433.48 501.432c-5.878 0-10.65-4.772-10.65-10.65v-25.681c0-5.878 4.772-10.65 10.65-10.65s10.65 4.772 10.65 10.65v25.682c0 5.877-4.773 10.65-10.65 10.65z"/><path d="M601.006 519.905a48.497 37.683 0 1096.993 0 48.497 37.683 0 10-96.993 0z" fill="#FF8E9E"/><path d="M626.196 501.432c-5.877 0-10.65-4.772-10.65-10.65v-25.681c0-5.878 4.773-10.65 10.65-10.65s10.65 4.772 10.65 10.65v25.682c-.02 5.877-4.772 10.65-10.65 10.65zm-94.904 6.861c-17.674 0-31.682-8.294-38.666-15.298-4.137-4.158-4.117-10.896.04-15.053 4.138-4.137 10.835-4.117 14.992-.02 2.233 2.15 22.18 20.029 50.73-1.004a10.631 10.631 0 1112.615 17.121c-14.213 10.486-27.812 14.254-39.71 14.254z"/><path d="M502.17 930.632zm141.414-21.934zm-36.72 10.772zm54.66-17.49a411.261 411.261 0 01-17.94 6.697 377.786 377.786 0 0017.94-6.697zm34.898-15.954a394.744 394.744 0 01-17.264 8.418 447.625 447.625 0 0017.264-8.418zm-17.264 8.397zM502.17 930.632zm243.589-74.834a327.47 327.47 0 008.683-6.431 452.881 452.881 0 01-8.683 6.43z" fill="#FF8E9E"/><path d="M754.442 849.367zm36.209-31.13a408.095 408.095 0 0013.824-14.09 390.504 390.504 0 01-13.824 14.09zm33.362-36.7zm-33.362 36.7a396.783 396.783 0 01-29.389 25.826 384.134 384.134 0 0029.389-25.826z" fill="#FFB5C0"/></svg>