<svg class="prefix__icon" width="200" height="200" viewBox="0 0 1024 1024" xmlns="http://www.w3.org/2000/svg"><path d="M640.205 113.09c-27.607-.511-54.354 2.806-79.77 9.442-.921.246-.921 1.556 0 1.823 122.389 35.061 211.948 147.763 211.948 281.415 0 133.653-89.58 246.354-211.948 281.416-.921.266-.921 1.577 0 1.823 23.675 6.185 48.538 9.502 74.158 9.502 162.673 0 294.36-132.69 292.7-295.751-1.577-157.573-129.556-286.7-287.088-289.67z" fill="#7CE3FF"/><path d="M640.205 113.09a295.26 295.26 0 00-38.482 1.803c141.783 19.128 252.109 140.84 253.583 287.068 1.536 151.92-112.68 277.463-259.85 293.908a293.416 293.416 0 0039.117 2.622c162.672 0 294.359-132.69 292.7-295.752-1.557-157.552-129.536-286.679-287.068-289.648z" fill="#7CE3FF"/><path d="M855.327 401.961c-1.475-146.207-111.8-267.94-253.584-287.068a291.882 291.882 0 00-41.287 7.639c-.922.246-.922 1.556 0 1.823 122.388 35.061 211.947 147.763 211.947 281.415 0 133.653-89.58 246.354-211.947 281.416-.922.266-.922 1.577 0 1.823a291.625 291.625 0 0035.02 6.88c147.17-16.465 261.387-142.007 259.85-293.928z" fill="#55DAFE"/><path d="M634.593 709.12c-25.989 0-51.835-3.318-76.84-9.85a11.598 11.598 0 01-8.643-11.04 11.62 11.62 0 018.376-11.284c120.259-34.447 204.247-145.982 204.247-271.196 0-125.215-83.988-236.729-204.247-271.196a11.633 11.633 0 01-8.397-11.285 11.58 11.58 0 018.643-11.039c26.87-7.024 54.722-10.301 82.637-9.789 78.97 1.495 153.333 33.444 209.387 90.01 56.054 56.545 87.368 131.194 88.167 210.186.532 53.391-12.964 106.004-39.076 152.187A305.15 305.15 0 01793.21 664.392a10.64 10.64 0 01-14.643-3.482 10.662 10.662 0 013.481-14.643c85.259-52.408 135.578-143.422 134.554-243.405-1.536-151.06-125.645-276.275-276.664-279.122a285.447 285.447 0 00-42.68 2.396c48.332 20.46 91.32 53.556 123.432 95.499 40.735 53.248 62.28 116.92 62.28 184.135s-21.525 130.888-62.28 184.136c-32.092 41.943-75.08 75.039-123.433 95.498 35.82 4.752 72.766 2.56 107.561-6.37 5.694-1.453 11.49 1.967 12.944 7.66 1.454 5.694-1.967 11.49-7.66 12.944-24.474 6.287-49.91 9.482-75.51 9.482z"/><path d="M503.276 219.402l22.65 41.39a23.593 23.593 0 009.4 9.4l41.39 22.652c16.405 8.97 16.405 32.542 0 41.512l-41.39 22.651a23.593 23.593 0 00-9.4 9.4l-22.65 41.39c-8.97 16.405-32.543 16.405-41.513 0l-22.651-41.39a23.593 23.593 0 00-9.4-9.4l-41.39-22.65c-16.405-8.97-16.405-32.543 0-41.513l41.39-22.651a23.593 23.593 0 009.4-9.4l22.65-41.39c8.97-16.405 32.543-16.405 41.514 0z" fill="#FFCE71"/><path d="M482.509 430.756c-12.739 0-23.982-6.677-30.085-17.838l-22.651-41.39a13.005 13.005 0 00-5.182-5.182l-41.39-22.65c-11.161-6.104-17.838-17.368-17.838-30.086 0-12.738 6.677-23.982 17.838-30.085l41.39-22.65a13.005 13.005 0 005.182-5.182l22.63-41.39c6.103-11.162 17.367-17.838 30.085-17.838 12.739 0 23.982 6.676 30.085 17.838l22.651 41.39a13.085 13.085 0 005.161 5.181l41.41 22.651c11.162 6.103 17.839 17.347 17.839 30.085 0 12.739-6.677 23.982-17.838 30.085l-41.39 22.651a13.005 13.005 0 00-5.182 5.182l-22.63 41.39c-6.103 11.161-17.347 17.838-30.085 17.838zm0-213.013c-4.833 0-9.093 2.54-11.428 6.78l-22.65 41.39a34.28 34.28 0 01-13.64 13.639l-41.39 22.65a12.86 12.86 0 00-6.78 11.429c0 4.833 2.54 9.113 6.78 11.428l41.39 22.65a34.279 34.279 0 0113.64 13.64l22.65 41.39a12.86 12.86 0 0011.428 6.78c4.833 0 9.113-2.54 11.428-6.78l22.65-41.39a34.15 34.15 0 0113.64-13.64l41.41-22.65a12.86 12.86 0 006.78-11.428c0-4.834-2.54-9.093-6.78-11.428l-41.41-22.651a34.228 34.228 0 01-13.619-13.64l-22.65-41.41c-2.336-4.24-6.616-6.759-11.45-6.759z"/><path d="M796.59 745.39l15.852 28.98a16.509 16.509 0 006.574 6.573l28.979 15.852c11.49 6.287 11.49 22.774 0 29.04l-28.98 15.852a16.509 16.509 0 00-6.573 6.574l-15.852 28.98c-6.287 11.489-22.774 11.489-29.04 0l-15.852-28.98a16.509 16.509 0 00-6.574-6.574l-28.98-15.851c-11.489-6.288-11.489-22.774 0-29.041l28.98-15.852a16.509 16.509 0 006.574-6.574l15.851-28.979c6.267-11.469 22.774-11.469 29.041 0z" fill="#FFCE71"/><path d="M782.07 896.492a27.206 27.206 0 01-23.86-14.152l-15.851-28.98a5.923 5.923 0 00-2.355-2.355l-28.959-15.851a27.206 27.206 0 01-14.152-23.86 27.182 27.182 0 0114.152-23.858l28.98-15.852a6.055 6.055 0 002.355-2.355l15.851-28.959a27.206 27.206 0 0123.86-14.152 27.182 27.182 0 0123.858 14.152l15.852 28.98a5.923 5.923 0 002.355 2.354l28.959 15.852c8.724 4.772 14.152 13.906 14.152 23.86s-5.428 19.087-14.152 23.858l-28.959 15.852a5.923 5.923 0 00-2.355 2.355l-15.852 28.959a27.238 27.238 0 01-23.88 14.152zm0-149.074c-1.045 0-3.666.307-5.202 3.072l-15.852 28.958a27.197 27.197 0 01-10.813 10.814l-28.98 15.851c-2.785 1.516-3.071 4.137-3.071 5.182 0 1.065.307 3.666 3.072 5.202l28.979 15.851a27.197 27.197 0 0110.813 10.814l15.852 28.979c1.515 2.785 4.137 3.072 5.181 3.072 1.065 0 3.666-.307 5.202-3.072l15.852-28.959a27.197 27.197 0 0110.813-10.813l28.959-15.852c2.785-1.515 3.072-4.137 3.072-5.202 0-1.044-.307-3.666-3.072-5.181l-28.959-15.852a27.197 27.197 0 01-10.813-10.813l-15.852-28.98c-1.515-2.764-4.116-3.071-5.181-3.071z"/><path d="M505.59 555.295l-25.068 76.083a44.485 44.485 0 006.82 40.796l48.456 63.775c22.282 29.327 1.27 71.475-35.574 71.332l-80.097-.328a44.413 44.413 0 00-36.68 19.108l-45.67 65.802c-21.013 30.27-67.584 23.306-78.828-11.776l-24.453-76.288a44.47 44.47 0 00-29.512-29l-76.697-23.101c-35.267-10.63-43.05-57.078-13.148-78.623l64.983-46.817a44.354 44.354 0 0018.452-37.007l-1.72-80.077c-.799-36.823 40.98-58.573 70.697-36.803l64.614 47.35a44.39 44.39 0 0040.899 6.103l75.632-26.378c34.816-12.145 68.424 20.869 56.894 55.849z" fill="#FFCE71"/><path d="M420.147 806.953l80.097.328c36.844.143 57.856-42.005 35.574-71.332l-48.455-63.775a44.427 44.427 0 01-6.82-40.796l25.067-76.083c11.53-34.98-22.077-67.994-56.852-55.87l-43.623 15.217a195.867 195.867 0 00-32.747 26.788c-75.633 76.964-74.547 200.663 2.416 276.295 2.888 2.827 5.837 5.51 8.848 8.131a44.315 44.315 0 0136.495-18.903z" fill="#FCE3A0"/><path d="M301.445 921.6c-2.744 0-5.509-.205-8.294-.614-20.89-3.113-37.868-17.552-44.319-37.663l-24.453-76.288a33.822 33.822 0 00-22.446-22.057l-76.698-23.102c-20.214-6.103-34.96-22.814-38.44-43.642s4.996-41.431 22.138-53.78l64.983-46.818a33.792 33.792 0 0014.029-28.16l-1.72-80.077c-.45-21.115 10.895-40.284 29.634-50.033 18.74-9.748 40.96-8.069 58 4.424l15.585 11.428c4.73 3.482 5.775 10.138 2.294 14.868a10.62 10.62 0 01-14.869 2.294l-15.585-11.428c-10.609-7.782-23.92-8.786-35.594-2.724-11.674 6.083-18.473 17.552-18.187 30.72l1.72 80.077a55.03 55.03 0 01-22.875 45.875l-64.984 46.818c-10.67 7.7-15.749 20.03-13.578 33.014 2.171 12.984 10.998 22.999 23.593 26.787l76.698 23.102a55.005 55.005 0 0136.557 35.942l24.453 76.288c4.014 12.534 14.172 21.177 27.197 23.122 12.984 1.925 25.252-3.338 32.768-14.152l45.67-65.802a55.101 55.101 0 0145.261-23.675h.226l80.097.328h.143c13.087 0 24.392-6.984 30.25-18.719 5.877-11.776 4.628-25.067-3.339-35.533l-48.456-63.774a55.063 55.063 0 01-8.458-50.565l25.068-76.084c4.116-12.492.962-25.456-8.418-34.693-9.38-9.216-22.405-12.124-34.836-7.803l-75.633 26.379a55.091 55.091 0 01-50.708-7.578l-5.489-4.014c-4.73-3.482-5.775-10.138-2.294-14.868a10.658 10.658 0 0114.869-2.294l5.488 4.014a33.792 33.792 0 0031.11 4.649l75.632-26.378c19.948-6.964 41.697-2.09 56.75 12.718 15.053 14.807 20.316 36.454 13.701 56.524l-25.067 76.084a33.788 33.788 0 005.202 31.027l48.455 63.775c12.78 16.814 14.869 38.993 5.448 57.897-9.38 18.841-28.262 30.515-49.295 30.515h-.225l-80.098-.328h-.123a33.83 33.83 0 00-27.77 14.52l-45.67 65.803c-10.446 15.011-27.219 23.654-45.098 23.654z"/><path d="M229.26 629.764a49.725 35.164 44.498 1049.291-50.163 49.725 35.164 44.498 10-49.292 50.163z" fill="#FF8E9E"/><path d="M314.02 610.611c-15.626 0-27.873-4.649-36.496-13.885-14.827-15.893-11.919-39.035-11.796-40.018.778-5.816 6.144-9.892 11.96-9.134 5.796.778 9.892 6.103 9.134 11.899-.04.389-1.577 14.438 6.329 22.814 5.017 5.305 13.373 7.64 24.862 6.902 5.817-.328 10.916 4.076 11.285 9.933a10.633 10.633 0 01-9.933 11.284c-1.802.164-3.604.205-5.345.205z"/><path d="M378.588 776.488a49.725 35.164 44.498 1049.292-50.164 49.725 35.164 44.498 10-49.292 50.164z" fill="#FF8E9E"/><path d="M444.109 739.164c-8.274 0-22.405-1.659-33.342-11.51-10.424-9.38-15.278-23.388-14.438-41.615.266-5.878 5.304-10.424 11.12-10.138 5.878.267 10.404 5.243 10.138 11.121-.532 11.55 1.966 19.907 7.414 24.822 8.479 7.639 22.65 5.878 22.794 5.857 5.796-.88 11.223 3.113 12.124 8.93a10.656 10.656 0 01-8.929 12.124c-.328.04-2.949.41-6.881.41z"/><path d="M303.867 708.216a21.832 25.518 44.498 1035.77-36.403 21.832 25.518 44.498 10-35.77 36.403z" fill="#4C5699"/><path d="M318.034 724.439c-8.028 0-15.77-2.826-21.647-8.581-6.308-6.206-9.565-15.135-8.93-24.474.615-8.847 4.567-17.408 11.12-24.064 6.555-6.676 15.033-10.752 23.88-11.53 9.299-.82 18.29 2.294 24.618 8.5 12.759 12.554 11.796 34.324-2.192 48.537-7.557 7.68-17.387 11.612-26.85 11.612zm11.674-26.542l7.577 7.455-7.577-7.455c5.652-5.755 6.758-14.193 2.437-18.453-2.58-2.519-6.042-2.621-7.865-2.478-3.748.328-7.577 2.233-10.526 5.243-2.95 3.01-4.813 6.882-5.059 10.63-.123 1.843.041 5.304 2.621 7.823 4.322 4.26 12.739 2.99 18.392-2.765z"/></svg>