<svg class="prefix__icon" width="200" height="200" viewBox="0 0 1024 1024" xmlns="http://www.w3.org/2000/svg"><path d="M51.57900000000001 513.321a460.416 460.416 0 10920.832 0 460.416 460.416 0 10-920.832 0z" fill="#FFC700"/><path d="M512 983.357c-259.18 0-470.042-210.857-470.042-470.041S252.82 43.279 512 43.279s470.042 210.857 470.042 470.042S771.18 983.357 512 983.357zm0-920.826c-248.57 0-450.79 202.22-450.79 450.79S263.43 964.106 512 964.106s450.79-202.22 450.79-450.79S760.57 62.53 512 62.53z" fill="#6C0000"/><path d="M237.834 617.318c0 137.462 61.906 260.25 158.997 341.31 36.869 9.513 75.315 15.104 115.159 15.104 254.285 0 460.42-206.136 460.42-460.416 0-110.398-38.942-211.646-103.72-290.965-58.7-29.824-124.728-47.017-194.867-47.017-240.784.006-435.989 197.888-435.989 441.984z" fill="#FFEC43"/><path d="M511.99 983.357c-38.385 0-77.937-5.186-117.566-15.41l-2.099-.543-1.669-1.393c-103.24-86.19-162.447-213.29-162.447-348.693 0-249.016 199.9-451.604 445.614-451.604 69.432 0 136.453 16.174 199.23 48.056l1.807.927 1.285 1.572c68.285 83.615 105.897 189.102 105.897 297.047 0 259.184-210.868 470.041-470.052 470.041zm-110.654-33.51c37.361 9.462 74.578 14.264 110.659 14.264 248.57 0 450.795-202.22 450.795-450.79 0-102.84-35.594-203.361-100.27-283.295-59.515-29.9-122.992-45.056-188.692-45.056-235.1 0-426.363 193.951-426.363 432.354-.005 128.947 56.049 250.02 153.871 332.523z" fill="#6B0204"/><path d="M244.132 356.424a91.587 91.587 0 10183.173 0 91.587 91.587 0 10-183.173 0z" fill="#FFEC43"/><path d="M335.718 457.636c-55.808 0-101.217-45.4-101.217-101.212 0-55.808 45.41-101.212 101.217-101.212s101.213 45.404 101.213 101.212-45.4 101.212-101.213 101.212zm0-183.173c-45.199 0-81.97 36.761-81.97 81.96s36.771 81.962 81.97 81.962 81.961-36.762 81.961-81.961-36.761-81.961-81.96-81.961z" fill="#6B0204"/><path d="M574.29 190.73a50.422 50.422 0 10100.843 0 50.422 50.422 0 10-100.843 0z" fill="#FFEC43"/><path d="M624.707 250.778c-33.106 0-60.048-26.942-60.048-60.048s26.942-60.047 60.048-60.047 60.047 26.941 60.047 60.047-26.942 60.048-60.047 60.048zm0-100.844c-22.493 0-40.797 18.304-40.797 40.796s18.304 40.796 40.797 40.796 40.796-18.304 40.796-40.796-18.3-40.796-40.796-40.796z" fill="#6B0204"/><path d="M375.695 157.423a27.105 38.912 70.009 1073.135-26.606 27.105 38.912 70.009 10-73.135 26.606z" fill="#FFEC43"/><path d="M403.574 182.508c-17.895 0-32.041-8.341-36.926-21.77-3.532-9.703-1.592-20.91 5.335-30.741 6.283-8.914 16.128-16.149 27.725-20.373a62.019 62.019 0 0121.238-3.855c17.894 0 32.046 8.35 36.925 21.78 3.533 9.703 1.593 20.91-5.335 30.74-6.282 8.915-16.128 16.15-27.724 20.373a62.106 62.106 0 01-21.238 3.846zm17.372-57.488a43.366 43.366 0 00-14.654 2.693c-7.833 2.842-14.597 7.716-18.575 13.363-1.905 2.704-4.823 8.003-2.975 13.082 3.031 8.325 19.078 11.684 33.495 6.415 7.824-2.841 14.592-7.715 18.57-13.363 1.905-2.708 4.824-8.002 2.975-13.081-2.012-5.535-9.405-9.109-18.836-9.109z" fill="#6B0204"/><path d="M123.934 487.038a27.105 38.912 30.913 1039.98-66.769 27.105 38.912 30.913 10-39.98 66.77z" fill="#FFEC43"/><path d="M134.43 499.44a29.568 29.568 0 01-15.42-4.167c-17.67-10.583-20.558-37.161-6.58-60.508 13.44-22.43 39.419-32.963 56.443-22.769 17.67 10.583 20.557 37.161 6.58 60.508-9.795 16.364-25.898 26.937-41.022 26.937zm19.027-72.36c-6.964 0-17.24 5.427-24.515 17.566-8.868 14.813-7.142 29.865-.046 34.115 6.922 4.137 20.598-.369 30.05-16.143 8.867-14.813 7.142-29.865.045-34.115a10.69 10.69 0 00-5.534-1.423z" fill="#6B0204"/><path d="M182.856 743.113a56.817 39.578 81.651 10-16.5-112.429 56.817 39.578 81.651 1016.5 112.43z" fill="#FFEC43"/><path d="M178.79 753.055c-25.195 0-47.923-25.36-52.864-58.988-5.401-36.864 11.75-68.874 39.035-72.893 27.31-3.938 53.043 22.538 58.332 58.598 2.484 16.942.164 33.68-6.548 47.125-7.286 14.607-18.821 23.751-32.486 25.758a37.888 37.888 0 01-5.469.4zm-8.355-113.03a18.125 18.125 0 00-2.678.195c-16.057 2.355-26.496 25.733-22.784 51.047 3.707 25.226 20.167 44.743 36.495 42.337 7.25-1.065 13.66-6.492 18.053-15.294 4.967-9.963 6.651-22.656 4.72-35.753-3.49-23.849-18.344-42.531-33.806-42.531z" fill="#6B0204"/><path d="M389.668 299.94a75.566 75.566 0 0113.112 42.527c0 42.849-35.768 77.583-79.892 77.583a80.845 80.845 0 01-53.335-19.937c14.28 21.1 38.835 35.056 66.78 35.056 44.124 0 79.892-34.734 79.892-77.583 0-22.917-10.29-43.443-26.557-57.646zm140.257 321.956c9.897 14.32 15.693 31.431 15.693 49.853 0 50.232-42.819 90.947-95.637 90.947-24.57 0-46.904-8.889-63.846-23.373 17.09 24.735 46.49 41.098 79.939 41.098 52.818 0 95.636-40.72 95.636-90.946.005-26.865-12.314-50.93-31.785-67.58zM201.876 682.06c-3.235-24.07-18.314-41.59-33.679-39.127-.563.092-1.106.26-1.654.4 12.493 3.143 23.46 18.626 26.164 38.727 3.118 23.188-5.909 43.945-20.306 47.641 2.467.62 4.987.804 7.516.4 15.365-2.463 25.2-23.972 21.96-48.041zM159.898 463.4c6.62-11.827 4.075-26.522-5.684-32.814-.358-.23-.732-.42-1.1-.62 6.118 7.312 7.004 19.17 1.474 29.051-6.374 11.397-18.923 15.949-28.56 10.645 1.21 1.444 2.602 2.729 4.21 3.763 9.758 6.292 23.04 1.807 29.66-10.025zm258.4-305.198c12.627-5.479 19.877-16.261 16.19-24.074-.133-.287-.312-.548-.47-.82.194 7.158-6.575 15.422-17.117 20-12.165 5.278-24.852 3.696-29.066-3.41.04 1.412.322 2.785.932 4.075 3.676 7.818 16.9 9.712 29.532 4.229zm232.224 6.057a39.86 39.86 0 015.79 20.813c0 20.971-15.795 37.97-35.282 37.97-9.067 0-17.305-3.712-23.557-9.76 6.308 10.328 17.152 17.158 29.491 17.158 19.487 0 35.282-16.998 35.282-37.97 0-11.213-4.541-21.263-11.724-28.211zM790.64 408.325a40.755 40.755 0 016.743 22.492c0 22.661-18.402 41.032-41.093 41.032a40.924 40.924 0 01-27.433-10.542 41.047 41.047 0 0034.35 18.54c22.697 0 41.093-18.371 41.093-41.032a40.858 40.858 0 00-13.66-30.49z" fill="#FFBD00"/></svg>