<svg class="prefix__icon" width="200" height="200" viewBox="0 0 1024 1024" xmlns="http://www.w3.org/2000/svg"><path d="M463.421 716.431L263.803 732.14c-29.47 2.314-55.255-19.702-57.57-49.173l-2.518-32.113c-2.315-29.47 19.701-55.255 49.172-57.569l199.619-15.708c5.898-.471 11.059 3.932 11.51 9.83l9.256 117.515c.43 5.877-3.973 11.038-9.85 11.51z" fill="#D6948C"/><path d="M274.33 741.745c-41.452 0-76.678-31.99-79.995-73.995-3.482-44.134 29.614-82.882 73.748-86.343l180.347-14.193c6.533-.512 12.902 1.557 17.9 5.816 4.997 4.26 8.028 10.22 8.54 16.774l8.745 111.083c.512 6.554-1.557 12.902-5.817 17.9a24.386 24.386 0 01-16.773 8.54l-180.347 14.192c-2.109.144-4.239.226-6.348.226zM450.376 588.43c-.082 0-.185 0-.267.02l-180.346 14.193c-15.709 1.23-29.983 8.52-40.223 20.501s-15.196 27.238-13.947 42.947c1.229 15.708 8.52 29.982 20.5 40.222s27.218 15.176 42.947 13.947l180.347-14.193c1.106-.081 1.823-.675 2.232-1.146.41-.471.86-1.27.778-2.376l-8.745-111.084a3.236 3.236 0 00-1.146-2.232 3.297 3.297 0 00-2.13-.799z"/><path d="M560.579 716.431l199.618 15.709c29.47 2.314 55.255-19.702 57.57-49.173l2.518-32.113c2.315-29.47-19.701-55.255-49.172-57.569l-199.619-15.708a10.684 10.684 0 00-11.51 9.83l-9.256 117.515c-.43 5.877 3.973 11.038 9.85 11.51z" fill="#E8B5B1"/><path d="M749.67 741.745a82.62 82.62 0 01-6.348-.246l-180.347-14.193c-6.554-.512-12.514-3.543-16.773-8.54a24.465 24.465 0 01-5.817-17.9l8.745-111.083c1.065-13.517 12.903-23.675 26.44-22.59l180.347 14.193c44.134 3.482 77.23 42.21 73.748 86.344-3.317 42.025-38.564 74.015-79.995 74.015zM573.645 588.43c-1.7 0-3.134 1.311-3.257 3.01l-8.744 111.084a3.173 3.173 0 00.778 2.376 3.268 3.268 0 002.232 1.147l180.347 14.193c15.708 1.208 30.966-3.728 42.947-13.947 11.98-10.24 19.25-24.515 20.5-40.223 1.229-15.708-3.727-30.966-13.947-42.947s-24.514-19.25-40.223-20.5l-180.346-14.193h-.287z"/><path d="M553.513 814.346l170.21-54.026c31.62-10.035 66.641 3.297 81.92 32.727 4.157 8.028 6.82 17.019 7.577 26.604 3.01 38.338-25.62 71.884-63.96 74.895l-221.47 15.4 25.723-95.6z" fill="#E8B5B1"/><path d="M513.618 921.6l31.109-115.65 175.76-55.788c37.253-11.817 77.045 4.137 94.597 37.97 4.956 9.544 7.905 19.865 8.744 30.679 3.482 44.134-29.614 82.882-73.748 86.344L513.618 921.6zm48.68-98.857l-20.315 75.53 206.561-14.356c32.317-2.54 56.627-31.007 54.088-63.427a58.941 58.941 0 00-6.41-22.528c-12.76-24.596-41.882-36.167-69.243-27.484l-164.68 52.265z"/><path d="M469.955 814.346l-170.21-54.026c-31.62-10.035-66.642 3.297-81.92 32.727a69.685 69.685 0 00-7.577 26.604c-3.01 38.338 25.62 71.884 63.959 74.895l221.47 15.4-25.722-95.6z" fill="#D6948C"/><path d="M509.85 921.6l-236.38-16.445c-21.484-1.7-40.92-11.592-54.866-27.915-13.927-16.302-20.665-37.068-18.985-58.45.84-10.793 3.788-21.114 8.745-30.658 17.55-33.833 57.344-49.808 94.597-37.97l175.759 55.787L509.85 921.6zM278.139 767.59c-21.156 0-40.94 11.244-50.852 30.352a58.968 58.968 0 00-6.43 22.528c-1.23 15.708 3.727 30.966 13.946 42.946 10.24 11.981 24.515 19.252 40.223 20.5l206.459 14.357-20.316-75.53-164.66-52.265a60.327 60.327 0 00-18.37-2.888z"/><path d="M525.906 845.783c-24.822-28.692-39.895-66.089-39.895-107.028 0-32.564 9.544-62.874 25.928-88.372a164.56 164.56 0 0158.183-54.681 163.137 163.137 0 00-58.511-10.814c-90.42 0-163.697 73.298-163.697 163.697s73.298 163.697 163.697 163.697c28.897 0 56.033-7.517 79.585-20.665-25.416-9.707-47.78-25.6-65.29-45.834z" fill="#D6948C"/><path d="M742.134 239.882c27.156-6.922 47.247-31.539 47.247-60.846 0-34.672-28.119-62.792-62.792-62.792-28.467 0-52.51 18.965-60.19 44.954a272.226 272.226 0 00-74.056-35.963L772.28 305.172a271.346 271.346 0 00-30.146-65.29z" fill="#E8B5B1"/><path d="M592.343 125.235a272.282 272.282 0 00-80.712-12.185c-61.85 0-118.866 20.582-164.638 55.275-5.08-29.573-30.843-52.06-61.85-52.06-34.673 0-62.792 28.119-62.792 62.792 0 32.952 25.396 59.965 57.693 62.566-26.133 41.861-41.268 91.3-41.268 144.302 0 150.692 122.164 272.835 272.835 272.835 75.94 0 144.65-31.028 194.11-81.101l45.875-61.83c20.95-38.625 32.85-82.882 32.85-129.904 0-28.119-4.301-55.214-12.186-80.732L592.343 125.235z" fill="#D6948C"/><path d="M570.143 595.702a164.56 164.56 0 00-58.184 54.681 162.91 162.91 0 00-25.928 88.372c0 40.94 15.053 78.315 39.895 107.028 17.51 20.234 39.875 36.127 65.311 45.875 50.156-27.975 84.111-81.53 84.111-143.053-.02-69.795-43.704-129.351-105.205-152.903z" fill="#E8B5B1"/><path d="M260.03499999999997 179.036a25.108 25.108 0 1050.217 0 25.108 25.108 0 10-50.217 0z" fill="#FF8E9E"/><path d="M285.143 214.815c-19.722 0-35.779-16.057-35.779-35.779s16.057-35.778 35.779-35.778c19.722 0 35.779 16.056 35.779 35.778s-16.057 35.779-35.779 35.779zm0-50.238c-7.967 0-14.459 6.492-14.459 14.46 0 7.966 6.492 14.458 14.459 14.458s14.459-6.492 14.459-14.459-6.492-14.459-14.459-14.459zm226.488 756.02c-50.094 0-97.812-21.586-130.949-59.229-3.891-4.423-3.46-11.161.963-15.032 4.423-3.891 11.161-3.461 15.032.963 29.082 33.034 70.963 51.998 114.934 51.998 84.398 0 153.047-68.649 153.047-153.047S596.009 593.203 511.61 593.203s-153.047 68.65-153.047 153.047c0 12.677 1.556 25.273 4.608 37.438 1.433 5.714-2.028 11.51-7.742 12.943-5.693 1.454-11.51-2.027-12.922-7.741a175.299 175.299 0 01-5.264-42.64c0-96.153 78.213-174.366 174.367-174.366s174.367 78.213 174.367 174.366-78.214 174.346-174.347 174.346z"/><path d="M238.79699999999997 385.905a272.835 272.835 0 10545.669 0 272.835 272.835 0 10-545.67 0z" fill="#D6948C"/><path d="M322.56 385.905a269.64 230.953 90 10461.906 0 269.64 230.953 90 10-461.906 0z" fill="#E8B5B1"/><path d="M511.631 669.389c-156.323 0-283.504-127.181-283.504-283.505 0-48.046 12.103-95.027 35.143-136.765-29.92-9.4-51.568-37.602-51.568-70.083 0-40.489 32.952-73.441 73.441-73.441 30.31 0 56.75 18.309 67.87 45.302 46.9-31.785 101.418-48.497 158.618-48.497 53.371 0 104.899 14.766 149.812 42.803 12.472-23.859 37.6-39.588 65.167-39.588 40.489 0 73.441 32.953 73.441 73.442a73.415 73.415 0 01-42.086 66.457c24.35 42.66 37.171 90.911 37.171 140.411 0 47.145-11.796 93.819-34.14 134.984a10.64 10.64 0 01-14.439 4.28 10.64 10.64 0 01-4.28-14.438c20.644-38.073 31.56-81.224 31.56-124.826 0-49.869-14.07-98.386-40.673-140.308l-7.885-12.411 14.254-3.625c23.101-5.878 39.219-26.645 39.219-50.524 0-28.754-23.388-52.122-52.122-52.122-22.917 0-43.479 15.34-49.97 37.315l-4.179 14.09-12.103-8.356c-43.848-30.27-95.273-46.264-148.726-46.264-57.651 0-112.353 18.37-158.208 53.104l-13.968 10.588-2.97-17.264c-4.3-25.047-25.906-43.213-51.342-43.213-28.734 0-52.122 23.388-52.122 52.122 0 26.972 21.033 49.787 47.882 51.937l17.47 1.393-9.278 14.868c-25.928 41.533-39.65 89.477-39.65 138.65 0 144.568 117.618 262.185 262.186 262.185 70.635 0 136.888-27.669 186.532-77.947a10.668 10.668 0 0115.073-.082 10.668 10.668 0 01.082 15.073C659.64 639.468 588 669.39 511.63 669.39z"/><path d="M595.948 429.609a48.271 34.14 0 1096.542 0 48.271 34.14 0 10-96.542 0zM333.804 433.172a48.271 34.14 0 1096.542 0 48.271 34.14 0 10-96.542 0z" fill="#FFB5C0"/><path d="M418.181 464.732a93.778 93.778 0 10187.556 0 93.778 93.778 0 10-187.556 0z" fill="#F2D4D3"/><path d="M511.959 569.16c-57.59 0-104.427-46.859-104.427-104.428 0-57.59 46.858-104.427 104.427-104.427 57.59 0 104.428 46.858 104.428 104.427 0 57.59-46.838 104.428-104.428 104.428zm0-187.556c-45.834 0-83.128 37.294-83.128 83.128s37.294 83.128 83.128 83.128 83.128-37.294 83.128-83.128-37.294-83.128-83.128-83.128z"/><path d="M701.501 179.036a25.108 25.108 0 1050.217 0 25.108 25.108 0 10-50.217 0z" fill="#FF8E9E"/><path d="M726.61 214.815c-19.722 0-35.779-16.057-35.779-35.779s16.057-35.778 35.779-35.778 35.778 16.056 35.778 35.778-16.056 35.779-35.778 35.779zm0-50.238c-7.967 0-14.459 6.492-14.459 14.46 0 7.966 6.492 14.458 14.459 14.458s14.459-6.492 14.459-14.459-6.492-14.459-14.46-14.459zM408.146 409.682c-5.878 0-10.65-4.772-10.65-10.65v-19.169c0-5.878 4.772-10.65 10.65-10.65s10.65 4.772 10.65 10.65v19.17c.02 5.877-4.752 10.649-10.65 10.649zm206.356 0c-5.877 0-10.65-4.772-10.65-10.65v-19.169c0-5.878 4.773-10.65 10.65-10.65s10.65 4.772 10.65 10.65v19.17c.02 5.877-4.751 10.649-10.65 10.649z"/><path d="M501.33 448.41a14.082 14.082 0 0020.582 0l11.858-12.678c8.418-8.99 2.028-23.695-10.28-23.695h-23.717c-12.308 0-18.698 14.705-10.28 23.695l11.837 12.678z" fill="#FF8E9E"/><path d="M511.631 463.524c-6.82 0-13.414-2.867-18.083-7.844l-11.858-12.677c-6.84-7.311-8.602-17.551-4.608-26.747s12.677-14.889 22.691-14.889h23.696c10.015 0 18.698 5.693 22.692 14.889 3.993 9.175 2.211 19.436-4.608 26.747l-11.858 12.677a24.748 24.748 0 01-18.064 7.844zm-11.858-40.837c-1.863 0-2.723 1.126-3.133 2.068s-.635 2.335.635 3.707l11.858 12.677c.88.942 1.945 1.086 2.498 1.086s1.618-.144 2.499-1.086l11.858-12.677c1.27-1.352 1.044-2.765.635-3.707-.41-.942-1.29-2.068-3.134-2.068h-23.716z"/><path d="M494.121 490.7c-15.524 0-28.16-12.635-28.16-28.16 0-5.877 4.772-10.649 10.65-10.649s10.65 4.772 10.65 10.65c0 3.768 3.071 6.84 6.84 6.84 3.768 0 6.84-3.072 6.84-6.84 0-5.878 4.772-10.65 10.65-10.65s10.649 4.772 10.649 10.65c.041 15.524-12.595 28.16-28.119 28.16z"/><path d="M529.142 490.7c-15.524 0-28.16-12.635-28.16-28.16 0-5.877 4.772-10.649 10.65-10.649s10.649 4.772 10.649 10.65c0 3.768 3.072 6.84 6.84 6.84s6.84-3.072 6.84-6.84c0-5.878 4.772-10.65 10.65-10.65s10.65 4.772 10.65 10.65c.04 15.524-12.595 28.16-28.12 28.16z"/></svg>