<svg class="prefix__icon" width="200" height="200" viewBox="0 0 1024 1024" xmlns="http://www.w3.org/2000/svg"><path d="M536.893 516.874C297.677 474 33.475 483.984 15.023 586.952-3.43 689.9 240.864 791.02 480.076 833.889c239.211 42.87 503.414 32.891 521.866-70.062 18.453-102.963-225.838-204.083-465.05-246.953zm444.719 243.313c-11.843 66.089-227.43 103.736-498.223 55.204C212.593 766.858 23.501 656.68 35.35 590.592c11.842-66.089 227.435-103.757 498.227-55.224 270.791 48.532 459.883 158.73 448.036 224.819z" fill="#6B0306"/><path d="M314.711 345.876c12.421-19.83 26.972-38.707 44.053-56.084C485.58 160.794 692.96 159.027 821.96 285.844c71.695 70.482 103.946 165.848 96.804 258.816l19.548 6.431c9.108-100.152-25.088-203.433-102.4-279.44-136.837-134.522-356.813-132.648-491.336 4.189a348.196 348.196 0 00-49.403 63.6l19.538 6.436z" fill="#6B0204"/><path d="M218.96699999999998 360.494a76.564 76.564 0 10153.129 0 76.564 76.564 0 10-153.129 0z" fill="#FFEC43"/><path d="M295.532 444.298c-46.214 0-83.805-37.596-83.805-83.809s37.591-83.804 83.805-83.804 83.804 37.596 83.804 83.81-37.591 83.803-83.804 83.803zm0-153.134c-38.226 0-69.336 31.104-69.336 69.325s31.11 69.325 69.336 69.325 69.335-31.104 69.335-69.325-31.11-69.325-69.335-69.325z" fill="#6B0204"/><path d="M317.952 294.636c22.456 11.407 31.959 38.082 28.969 64.65-6.528 57.989-75.735 64.246-82.673 61.936a69.642 69.642 0 0031.621 7.558c38.36 0 69.458-30.828 69.458-68.86-.005-30.371-19.845-56.135-47.375-65.284zM885.059 527.703a37.908 37.908 0 1075.817 0 37.908 37.908 0 10-75.817 0z" fill="#FFC700"/><path d="M922.967 572.856c-24.899 0-45.143-20.254-45.143-45.153 0-24.893 20.244-45.148 45.143-45.148s45.143 20.255 45.143 45.148c0 24.899-20.244 45.153-45.143 45.153zm0-75.822a30.705 30.705 0 00-30.674 30.664 30.71 30.71 0 0030.674 30.674 30.71 30.71 0 0030.674-30.674 30.705 30.705 0 00-30.674-30.664zM516.746 838.18a49.756 49.756 0 1099.513 0 49.756 49.756 0 10-99.513 0z" fill="#6C0000"/><path d="M769.649 507.075c-4.127-11.735-14.53-20.173-27.131-22.022l-82.852-12.129-35.978-73.57c-5.602-11.463-17.654-18.856-30.73-18.856-13.036 0-25.109 7.393-30.73 18.857l-35.979 73.57-82.831 12.149c-12.621 1.807-23.04 10.245-27.172 22.021-4.147 11.914-1.08 24.888 8.023 33.838l60.83 59.868-14.095 82.929c-2.125 12.426 3.42 25.206 14.136 32.538 10.261 6.942 24.653 7.726 35.743 1.889l72.095-38.241 72.136 38.277a35 35 0 0016.26 4.03 34.744 34.744 0 0019.503-5.96c10.655-7.312 16.2-20.076 14.075-32.497l-14.096-82.929 60.831-59.868c9.083-8.965 12.13-21.94 7.962-33.894z" fill="#FFC700"/><path d="M681.375 729.462a42.199 42.199 0 01-19.64-4.87l-68.757-36.484-68.71 36.439c-13.138 6.922-31.012 5.944-43.188-2.284-13.066-8.95-19.82-24.545-17.228-39.757l13.48-79.196-58.152-57.221c-11.11-10.931-14.859-26.783-9.78-41.375 5.033-14.346 17.675-24.612 32.983-26.803l79.033-11.602 34.299-70.139c6.835-13.921 21.447-22.912 37.232-22.912 15.826 0 30.439 8.996 37.233 22.917l34.299 70.134 79.078 11.576c15.283 2.243 27.889 12.509 32.911 26.788 5.105 14.623 1.378 30.5-9.707 41.447l-58.153 57.22 13.47 79.207c2.607 15.176-4.11 30.761-17.11 39.68a42.056 42.056 0 01-23.593 7.235zm-88.397-57.744l75.53 40.08c8.781 4.649 20.01 4.065 28.33-1.541 8.294-5.699 12.63-15.627 10.971-25.262l-14.715-86.667 63.514-62.515c7.07-6.968 9.452-17.07 6.21-26.347-3.23-9.175-11.407-15.785-21.34-17.245l-86.64-12.682-37.648-77c-4.393-8.99-13.906-14.791-24.227-14.791-10.312 0-19.82 5.811-24.228 14.802l-37.648 76.994-86.62 12.708c-9.968 1.424-18.155 8.039-21.386 17.25-3.215 9.236-.814 19.312 6.267 26.275l63.524 62.52-14.73 86.651c-1.65 9.657 2.698 19.61 11.09 25.355 7.787 5.278 19.773 5.929 28.277 1.454l75.469-40.039z" fill="#6C0000"/></svg>