<svg class="prefix__icon" width="200" height="200" viewBox="0 0 1024 1024" xmlns="http://www.w3.org/2000/svg"><path d="M51.01000000000005 515.814a469.699 469.699 0 10939.398 0 469.699 469.699 0 10-939.397 0z" fill="#00DFD5"/><path d="M520.714 995.215c-264.345 0-479.406-215.06-479.406-479.406S256.368 36.403 520.714 36.403s479.406 215.06 479.406 479.406-215.06 479.406-479.406 479.406zm0-939.397c-253.64 0-459.99 206.352-459.99 459.991S267.073 975.8 520.713 975.8 980.705 769.45 980.705 515.81 774.354 55.817 520.715 55.817z" fill="#6C0000"/><path d="M663.593 84.895c-161.853-29.466-334.06 30.474-440.975 170.05-152.08 198.544-114.412 482.78 84.137 634.86a452.111 452.111 0 00128.599 68.884 450.719 450.719 0 01-193.895-85.913C42.911 720.696 5.243 436.46 157.322 237.91 278.784 79.34 484.516 23.521 663.593 84.895z" fill="#99F0DD"/><path d="M287.87199999999996 598.415a47.35 47.35 0 1094.7 0 47.35 47.35 0 10-94.7 0z" fill="#FFEB43"/><path d="M335.227 653.855c-30.572 0-55.445-24.873-55.445-55.445s24.873-55.434 55.445-55.434 55.434 24.868 55.434 55.434-24.868 55.445-55.434 55.445zm0-94.7c-21.653 0-39.265 17.613-39.265 39.26 0 21.653 17.612 39.266 39.265 39.266 21.642 0 39.26-17.613 39.26-39.266-.005-21.647-17.618-39.26-39.26-39.26z" fill="#6B0306"/><path d="M196.844 335.58a29.983 29.983 0 1059.965 0 29.983 29.983 0 10-59.965 0z" fill="#FFEB43"/><path d="M226.826 373.647c-20.987 0-38.067-17.08-38.067-38.067 0-20.997 17.08-38.072 38.067-38.072 20.997 0 38.073 17.08 38.073 38.072s-17.08 38.067-38.073 38.067zm0-59.96a21.919 21.919 0 00-21.888 21.898c0 12.068 9.82 21.888 21.888 21.888s21.898-9.82 21.898-21.888a21.934 21.934 0 00-21.898-21.898z" fill="#6B0306"/><path d="M585.815 544.614a19.584 19.584 0 1039.168 0 19.584 19.584 0 10-39.168 0z" fill="#FFEB43"/><path d="M605.399 572.288c-15.263 0-27.668-12.41-27.668-27.668s12.41-27.68 27.668-27.68c15.263 0 27.669 12.417 27.669 27.68s-12.406 27.668-27.669 27.668zm0-39.173a11.51 11.51 0 00-11.494 11.5c0 6.333 5.155 11.494 11.494 11.494s11.494-5.156 11.494-11.495a11.515 11.515 0 00-11.494-11.5z" fill="#6B0306"/><path d="M406.031 202.542a17.71 17.71 0 1035.42 0 17.71 17.71 0 10-35.42 0z" fill="#FFEB43"/><path d="M423.741 228.337a25.825 25.825 0 01-25.8-25.8c0-14.218 11.572-25.79 25.8-25.79s25.8 11.572 25.8 25.79a25.825 25.825 0 01-25.8 25.8zm0-35.41a9.626 9.626 0 000 19.236 9.626 9.626 0 000-19.236z" fill="#6B0306"/><path d="M721.587 265.339c-2.437-6.927-8.576-11.904-16.015-12.995l-48.896-7.157-21.233-43.423c-3.307-6.764-10.419-11.126-18.135-11.126-7.695 0-14.817 4.362-18.135 11.126l-21.233 43.423-48.885 7.173c-7.45 1.07-13.599 6.046-16.036 12.994a19.016 19.016 0 004.736 19.968l35.901 35.333-8.32 48.942c-1.254 7.332 2.018 14.874 8.34 19.206 6.058 4.096 14.552 4.561 21.095 1.116l42.553-22.57 42.572 22.595a20.531 20.531 0 0021.105-1.136c6.287-4.316 9.559-11.848 8.31-19.18l-8.32-48.942 35.901-35.333a19.077 19.077 0 004.695-20.014z" fill="#FFBD00"/><path d="M669.491 400.404a28.805 28.805 0 01-13.363-3.307l-38.81-20.593-38.758 20.557c-9.006 4.716-21.105 4.05-29.414-1.561-8.96-6.13-13.574-16.825-11.776-27.27l7.608-44.774-32.891-32.369c-7.624-7.495-10.189-18.38-6.697-28.395 3.436-9.81 12.063-16.84 22.523-18.35l44.636-6.538 19.37-39.593c4.669-9.519 14.637-15.663 25.405-15.663 10.782 0 20.75 6.144 25.405 15.663l19.359 39.593 44.672 6.538c10.434 1.526 19.046 8.545 22.471 18.32 3.508 10.04.963 20.93-6.65 28.446l-32.902 32.379 7.614 44.78c1.776 10.434-2.821 21.114-11.705 27.202a28.754 28.754 0 01-16.097 4.935zm-52.173-42.214l46.367 24.597a12.652 12.652 0 0012.805-.702c3.64-2.498 5.57-6.87 4.849-11.105l-9.037-53.105 38.912-38.297c3.154-3.113 4.178-7.44 2.734-11.572-1.423-4.07-5.09-7.004-9.544-7.664l-53.12-7.772-23.106-47.253c-3.912-7.992-17.813-8.018-21.74.01l-23.111 47.248-53.105 7.782c-4.48.65-8.136 3.584-9.564 7.67a10.977 10.977 0 002.765 11.53l38.912 38.298-9.022 53.104c-.732 4.24 1.209 8.617 4.93 11.172 3.436 2.314 8.95 2.606 12.76.63l46.315-24.57z" fill="#6B0204"/><path d="M669.373 84.905c147.078 75.371 209.332 251.581 189.743 427.11C816.369 895.094 363.08 936.417 317.624 921.18a452.782 452.782 0 00207.11 49.925c251.238 0 454.911-203.668 454.911-454.912.006-200.653-129.966-370.841-310.272-431.288z" fill="#00D6C8"/><path d="M834.662 494.612a39.168 39.168 0 1078.336 0 39.168 39.168 0 10-78.336 0z" fill="#FFEB43"/><path d="M873.83 541.87c-26.05 0-47.252-21.202-47.252-47.263 0-26.05 21.202-47.252 47.252-47.252 26.061 0 47.263 21.202 47.263 47.252-.005 26.061-21.207 47.263-47.263 47.263zm0-78.336a31.11 31.11 0 00-31.073 31.073 31.114 31.114 0 0031.073 31.084 31.114 31.114 0 0031.084-31.084 31.12 31.12 0 00-31.084-31.073z" fill="#6B0306"/></svg>