<svg class="prefix__icon" width="200" height="200" viewBox="0 0 1024 1024" xmlns="http://www.w3.org/2000/svg"><path d="M77.70600000000002 544.947a434.294 434.294 0 10868.588 0 434.294 434.294 0 10-868.588 0z" fill="#BED5E9"/><path d="M512 988.36c-244.495 0-443.412-198.917-443.412-443.413S267.505 101.535 512 101.535s443.412 198.917 443.412 443.412S756.495 988.36 512 988.36zm0-868.593c-234.445 0-425.18 190.735-425.18 425.18S277.555 970.127 512 970.127s425.18-190.735 425.18-425.18S746.445 119.767 512 119.767z" fill="#6C0000"/><path d="M165.96499999999997 544.947a346.035 346.035 0 10692.07 0 346.035 346.035 0 10-692.07 0z" fill="#ECF3FE"/><path d="M512 900.106c-195.83 0-355.159-159.324-355.159-355.159S316.171 189.798 512 189.798s355.149 159.32 355.149 355.15S707.829 900.105 512 900.105zm0-692.075c-185.78 0-336.927 151.137-336.927 336.916S326.216 881.874 512 881.874s336.916-151.142 336.916-336.927S697.78 208.031 512 208.031z" fill="#6C0000"/><path d="M256.087 544.947a255.913 255.913 0 10511.826 0 255.913 255.913 0 10-511.826 0z" fill="#FFF"/><path d="M512 809.979c-146.14 0-265.032-118.897-265.032-265.032S365.86 279.921 512 279.921s265.027 118.886 265.027 265.026S658.14 809.98 512 809.98zm0-511.826c-136.09 0-246.8 110.715-246.8 246.794 0 136.09 110.716 246.8 246.8 246.8 136.08 0 246.794-110.715 246.794-246.8 0-136.08-110.715-246.794-246.794-246.794z" fill="#6C0000"/><path d="M180.152 605.645a76.974 76.974 0 10153.948 0 76.974 76.974 0 10-153.948 0z" fill="#00DFD5"/><path d="M257.126 691.732c-47.467 0-86.087-38.62-86.087-86.087s38.62-86.088 86.087-86.088c47.463 0 86.083 38.62 86.083 86.088s-38.62 86.087-86.083 86.087zm0-153.948c-37.417 0-67.86 30.439-67.86 67.86s30.438 67.861 67.86 67.861c37.412 0 67.85-30.438 67.85-67.86s-30.438-67.86-67.85-67.86z" fill="#6C0000"/><path d="M624.7479999999999 120.632a76.974 76.974 0 10153.948 0 76.974 76.974 0 10-153.948 0z" fill="#FFEC43"/><path d="M701.722 206.715c-47.468 0-86.088-38.62-86.088-86.083 0-47.467 38.62-86.087 86.088-86.087s86.087 38.62 86.087 86.087c0 47.463-38.62 86.083-86.087 86.083zm0-153.938c-37.417 0-67.86 30.438-67.86 67.86 0 37.412 30.438 67.85 67.86 67.85s67.86-30.438 67.86-67.85c-.005-37.422-30.443-67.86-67.86-67.86z" fill="#6B0204"/><path d="M720.2099999999999 898.14a76.974 76.974 0 10153.948 0 76.974 76.974 0 10-153.948 0z" fill="#FFC700"/><path d="M797.184 984.228c-47.468 0-86.088-38.62-86.088-86.088 0-47.462 38.62-86.082 86.088-86.082s86.088 38.62 86.088 86.082c0 47.468-38.62 86.088-86.088 86.088zm0-153.938c-37.417 0-67.86 30.438-67.86 67.85 0 37.417 30.438 67.86 67.86 67.86s67.86-30.438 67.86-67.86c0-37.412-30.438-67.85-67.86-67.85z" fill="#6C0000"/><path d="M352.89599999999996 544.947a159.104 159.104 0 10318.208 0 159.104 159.104 0 10-318.208 0z" fill="#ECF3FE"/><path d="M512 713.175c-92.759 0-168.228-75.469-168.228-168.228S419.241 376.73 512 376.73s168.218 75.458 168.218 168.217S604.759 713.175 512 713.175zm0-318.213c-82.708 0-149.996 67.282-149.996 149.985S429.292 694.943 512 694.943s149.985-67.287 149.985-149.996S594.708 394.962 512 394.962z" fill="#6C0000"/></svg>