<svg class="prefix__prefix__icon" width="200" height="200" viewBox="0 0 1024 1024" xmlns="http://www.w3.org/2000/svg"><path d="M512.005 996.664c85.755 0 171.367-20.541 242.417-58.89l-5.08-78.203s-11.862-130.96-121.256-161.316c-1.695-.466-29.087 25.718-78.613 23.358l-31.78-8.76c-3.266.133-6.794 4.239-10.035 4.377-3.236-.143-15.13-14.469-18.396-14.597l-16.727 7.301c-49.526 2.36-78.592-13.455-80.282-12.99-109.393 30.357-117.585 162.627-117.585 162.627l-.246 82.842c71.05 38.349 151.828 54.251 237.583 54.251z" fill="#ECF3FE"/><path d="M512.005 1006.044c-92.508 0-173.942-18.632-242.033-55.383L265.047 948l.261-88.459c.092-1.935 9.943-139.847 124.447-171.627l2.59-.353c2.136 0 3.754.609 6.954 1.822 8.893 3.37 33.848 12.729 71.08 11.264l17.117-7.46 2.135.082c5.186.205 9.016 3.866 15.36 9.923a190.64 190.64 0 003.584 3.364c2.227-1.367 5.125-2.919 8.755-3.067l1.449-.051 32.169 8.852c37.401 1.639 60.216-14.172 68.654-19.89 3.128-2.13 5.202-3.534 8.433-3.534l2.534.343c114.335 31.734 127.99 168.13 128.107 169.508l5.49 84.45-5.295 2.851c-71.7 38.707-159.375 60.027-246.866 60.027zm-228.198-69.258c64.322 33.52 141.076 50.509 228.198 50.509 82.289 0 164.639-19.487 232.668-54.958l-4.685-72.162c-.092-.993-12.37-121.559-110.597-151.772-9.656 6.523-37.447 24.689-80.353 22.57l-2.043-.323-28.902-7.962c-.138.097-.307.205-.471.307-2.304 1.45-5.463 3.425-9.549 3.61-5.95-.236-9.749-3.85-16.03-9.851-1.04-.983-2.458-2.34-3.708-3.477l-15.36 6.027c-42.204 2.073-70.318-8.602-80.307-12.38-.184-.067-.353-.139-.502-.2-99.328 29.588-108.067 152.187-108.144 153.43l-.215 76.632z" fill="#6C0000"/><path d="M608.046 922.327a7.511 7.511 0 01-7.511 7.516l-176.983.113a7.511 7.511 0 01-7.516-7.511l-.077-119.798a7.511 7.511 0 017.511-7.516l176.983-.113a7.511 7.511 0 017.516 7.511l.077 119.798z" fill="#9DEDDC"/><path d="M423.552 937.769a15.345 15.345 0 01-15.33-15.32l-.076-119.787a15.36 15.36 0 0115.314-15.334l176.993-.108a15.365 15.365 0 0115.33 15.284l.076 119.818a15.35 15.35 0 01-15.33 15.334l-176.977.113zm176.614-135.23l-176.69.405.363 119.209 176.69-.113-.363-119.5z" fill="#6B0204"/><path d="M453.929 829.276h50.324v20.183H453.93zm65.766-.04h50.325v20.182h-50.325zm-65.74 35.368H570.05v31.125H453.955z" fill="#FFEC43"/><path d="M340.132 695.675l365.46-6.702c85.776-63.314 143.227-167.158 151.824-275.748a357.874 357.874 0 001.065-34.693C855.07 192.548 697.185 44.626 505.83 48.133 314.475 51.64 162.12 205.256 165.53 391.24c2.211 120.78 72.919 238.008 174.602 304.435z" fill="#ECF3FE"/><path d="M337.423 705.1l-2.411-1.576c-106.435-69.53-176.645-192.041-178.857-312.115C152.663 200.56 309.448 42.363 505.66 38.764l6.836-.062c192.522 0 351.928 152.371 355.348 339.66a371.323 371.323 0 01-1.07 35.595c-8.847 111.54-67.005 217.165-155.612 282.563l-2.412 1.771-371.328 6.81zM512.497 57.447l-6.498.062c-185.871 3.4-334.402 153.042-331.11 333.558 2.089 113.146 67.922 228.695 167.982 295.183l359.542-6.59c82.96-62.346 137.339-161.991 145.68-267.176.87-11.316 1.218-22.687 1.023-33.777-3.256-177.147-154.26-321.26-336.62-321.26z" fill="#6C0000"/><path d="M352.256 674.806l330.112.502c73.006-59.392 125.184-160.349 123.438-255.586-2.842-155.085-136.689-278.395-298.946-275.42-162.264 2.97-291.492 131.103-288.65 286.188 1.745 95.19 55.387 187.699 134.046 244.316z" fill="#BED5E9"/><path d="M685.69 684.677l-336.48-.512-2.443-1.761c-83.328-59.981-136.176-156.442-137.932-251.74-2.93-160.005 130.688-292.675 297.845-295.737l5.919-.05c163.953 0 299.689 127.702 302.572 284.671 1.725 94.193-49.265 199.895-126.89 263.03l-2.59 2.1zm-330.393-19.24l323.712.496c71.947-59.914 119.035-158.341 117.433-246.047-2.699-146.816-130.033-266.27-283.843-266.27l-5.58.05c-156.816 2.878-282.18 126.971-279.45 276.65 1.633 88.586 50.503 178.411 127.728 235.12z" fill="#6C0000"/><path d="M708.163 700.232c0 18.944-7.317 34.304-16.349 34.304H332.196c-9.027 0-16.348-15.36-16.348-34.304s7.316-34.304 16.348-34.304h359.618c9.027 0 16.349 15.355 16.349 34.304z" fill="#FFC700"/><path d="M691.81 743.905H332.19c-14.904 0-25.702-18.37-25.702-43.678s10.798-43.68 25.703-43.68h359.618c14.905 0 25.718 18.371 25.718 43.68s-10.819 43.678-25.718 43.678zm-.4-68.67l-359.22.062c-1.694.83-6.968 9.585-6.968 24.93s5.28 24.1 7.368 25l358.948-.066c2.181-1.183 7.26-9.892 7.26-24.93-.005-15.354-5.3-24.1-7.388-24.995zM571.049 336.026c6.047-6.912 15.795-8.285 21.77-3.057l57.042 49.894c5.975 5.228 5.919 15.069-.133 21.98-6.047 6.913-15.795 8.285-21.77 3.057l-57.042-49.894c-5.97-5.223-5.914-15.063.133-21.98zm38.497-60.616c6.047-6.912 18.048-6.313 26.798 1.346l83.58 73.104c8.754 7.654 10.946 19.471 4.899 26.383-6.047 6.912-18.048 6.313-26.798-1.346l-83.579-73.104c-8.755-7.66-10.946-19.471-4.9-26.383z" fill="#6C0000"/></svg>